<?xml version="1.0" encoding="utf-8" standalone="no"?>
<!DOCTYPE svg PUBLIC "-//W3C//DTD SVG 1.1//EN"
  "http://www.w3.org/Graphics/SVG/1.1/DTD/svg11.dtd">
<svg xmlns:xlink="http://www.w3.org/1999/xlink" width="576pt" height="288pt" viewBox="0 0 576 288" xmlns="http://www.w3.org/2000/svg" version="1.1">
 <metadata>
  <rdf:RDF xmlns:dc="http://purl.org/dc/elements/1.1/" xmlns:cc="http://creativecommons.org/ns#" xmlns:rdf="http://www.w3.org/1999/02/22-rdf-syntax-ns#">
   <cc:Work>
    <dc:type rdf:resource="http://purl.org/dc/dcmitype/StillImage"/>
    <dc:date>2025-07-19T14:35:52.479084</dc:date>
    <dc:format>image/svg+xml</dc:format>
    <dc:creator>
     <cc:Agent>
      <dc:title>Matplotlib v3.8.0, https://matplotlib.org/</dc:title>
     </cc:Agent>
    </dc:creator>
   </cc:Work>
  </rdf:RDF>
 </metadata>
 <defs>
  <style type="text/css">*{stroke-linejoin: round; stroke-linecap: butt}</style>
 </defs>
 <g id="figure_1">
  <g id="patch_1">
   <path d="M 0 288 
L 576 288 
L 576 0 
L 0 0 
z
" style="fill: #ffffff"/>
  </g>
  <g id="axes_1">
   <g id="patch_2">
    <path d="M 72 256.32 
L 518.4 256.32 
L 518.4 34.56 
L 72 34.56 
z
" style="fill: #ffffff"/>
   </g>
   <g id="line2d_1">
    <path d="M 71.225 176.351258 
L 72.19375 178.354086 
L 73.1625 180.050796 
L 74.13125 181.426019 
L 75.1 182.467041 
L 76.06875 183.163932 
L 77.0375 183.509663 
L 78.00625 183.500195 
L 78.975 183.134533 
L 79.94375 182.414746 
L 80.9125 181.345961 
L 81.88125 179.936344 
L 82.85 178.197073 
L 83.81875 176.14228 
L 85.75625 171.156866 
L 87.69375 165.147777 
L 89.63125 158.320243 
L 92.5375 147.067825 
L 97.38125 127.850992 
L 99.31875 120.809555 
L 101.25625 114.533972 
L 103.19375 109.259048 
L 104.1625 107.061347 
L 105.13125 105.186401 
L 106.1 103.652961 
L 107.06875 102.476757 
L 108.0375 101.670311 
L 109.00625 101.242799 
L 109.975 101.199959 
L 110.94375 101.544042 
L 111.9125 102.273771 
L 112.88125 103.384314 
L 113.85 104.867282 
L 114.81875 106.710761 
L 115.7875 108.899393 
L 117.725 114.23421 
L 119.6625 120.685286 
L 121.6 128.021604 
L 124.50625 140.092801 
L 129.35 160.528682 
L 131.2875 167.90288 
L 133.225 174.375251 
L 135.1625 179.687101 
L 136.13125 181.837989 
L 137.1 183.620933 
L 138.06875 185.016706 
L 139.0375 186.00971 
L 140.00625 186.588149 
L 140.975 186.744175 
L 141.94375 186.474016 
L 142.9125 185.778076 
L 143.88125 184.660986 
L 144.85 183.131601 
L 145.81875 181.202926 
L 146.7875 178.891996 
L 147.75625 176.21973 
L 149.69375 169.89326 
L 151.63125 162.461577 
L 154.5375 149.878423 
L 160.35 123.740964 
L 162.2875 116.04 
L 164.225 109.402166 
L 165.19375 106.572735 
L 166.1625 104.112054 
L 167.13125 102.047482 
L 168.1 100.402405 
L 169.06875 99.195958 
L 170.0375 98.442808 
L 171.00625 98.152973 
L 171.975 98.331663 
L 172.94375 98.979168 
L 173.9125 100.090784 
L 174.88125 101.656816 
L 175.85 103.662639 
L 176.81875 106.088808 
L 177.7875 108.911214 
L 179.725 115.626174 
L 181.6625 123.529927 
L 184.56875 136.871847 
L 189.4125 159.809076 
L 191.35 168.035442 
L 193.2875 175.136261 
L 194.25625 178.157563 
L 195.225 180.776027 
L 196.19375 182.959291 
L 197.1625 184.679669 
L 198.13125 185.914497 
L 199.1 186.646413 
L 200.06875 186.863596 
L 201.0375 186.559974 
L 202.00625 185.735396 
L 202.975 184.395753 
L 203.94375 182.553011 
L 204.9125 180.225131 
L 205.88125 177.435897 
L 206.85 174.214668 
L 208.7875 166.619717 
L 210.725 157.774431 
L 213.63125 143.0501 
L 217.50625 123.120082 
L 219.44375 114.104106 
L 221.38125 106.326455 
L 222.35 103.028015 
L 223.31875 100.182177 
L 224.2875 97.827068 
L 225.25625 95.995233 
L 226.225 94.713093 
L 227.19375 94.000487 
L 228.1625 93.870312 
L 229.13125 94.328282 
L 230.1 95.372786 
L 231.06875 96.994834 
L 232.0375 99.178076 
L 233.00625 101.898912 
L 233.975 105.126707 
L 235.9125 112.947376 
L 237.85 122.268008 
L 240.75625 138.042574 
L 244.63125 159.584943 
L 246.56875 169.302707 
L 248.50625 177.601642 
L 249.475 181.07024 
L 250.44375 184.015913 
L 251.4125 186.394841 
L 252.38125 188.170427 
L 253.35 189.313932 
L 254.31875 189.805 
L 255.2875 189.632069 
L 256.25625 188.792659 
L 257.225 187.293488 
L 258.19375 185.15045 
L 259.1625 182.388468 
L 260.13125 179.041267 
L 261.1 175.151105 
L 263.0375 165.95135 
L 264.975 155.281206 
L 271.75625 115.374187 
L 273.69375 106.0061 
L 274.6625 102.056747 
L 275.63125 98.685555 
L 276.6 95.949421 
L 277.56875 93.896426 
L 278.5375 92.564863 
L 279.50625 91.982426 
L 280.475 92.165635 
L 281.44375 93.119493 
L 282.4125 94.83734 
L 283.38125 97.300845 
L 284.35 100.480082 
L 285.31875 104.333689 
L 286.2875 108.809137 
L 288.225 119.362553 
L 290.1625 131.520051 
L 295.975 169.833209 
L 297.9125 180.444454 
L 298.88125 184.902576 
L 299.85 188.684488 
L 300.81875 191.718761 
L 301.7875 193.945497 
L 302.75625 195.317776 
L 303.725 195.802835 
L 304.69375 195.382907 
L 305.6625 194.055708 
L 306.63125 191.834621 
L 307.6 188.748645 
L 308.56875 184.842158 
L 309.5375 180.174533 
L 311.475 168.864768 
L 313.4125 155.567053 
L 319.225 113.48524 
L 321.1625 102.232589 
L 322.13125 97.67781 
L 323.1 93.971399 
L 324.06875 91.196941 
L 325.0375 89.421957 
L 326.00625 88.695897 
L 326.975 89.048393 
L 327.94375 90.487919 
L 328.9125 93.00096 
L 329.88125 96.551786 
L 330.85 101.082785 
L 331.81875 106.515342 
L 333.75625 119.673634 
L 335.69375 135.033387 
L 339.56875 167.327217 
L 341.50625 181.485165 
L 342.475 187.472661 
L 343.44375 192.532883 
L 344.4125 196.537374 
L 345.38125 199.378446 
L 346.35 200.971771 
L 347.31875 201.258609 
L 348.2875 200.207745 
L 349.25625 197.817164 
L 350.225 194.11542 
L 351.19375 189.162598 
L 352.1625 183.050679 
L 353.13125 175.903079 
L 355.06875 159.141285 
L 360.88125 104.386159 
L 361.85 97.079487 
L 362.81875 90.901037 
L 363.7875 86.044068 
L 364.75625 82.673832 
L 365.725 80.92106 
L 366.69375 80.87586 
L 367.6625 82.582492 
L 368.63125 86.035463 
L 369.6 91.177316 
L 370.56875 97.898351 
L 371.5375 106.038314 
L 373.475 125.703158 
L 378.31875 180.698157 
L 379.2875 189.901231 
L 380.25625 197.662129 
L 381.225 203.65894 
L 382.19375 207.61775 
L 383.1625 209.327517 
L 384.13125 208.651889 
L 385.1 205.537181 
L 386.06875 200.016645 
L 387.0375 192.211961 
L 388.00625 182.333092 
L 388.975 170.677129 
L 390.9125 143.641482 
L 393.81875 101.678418 
L 394.7875 89.738261 
L 395.75625 79.843554 
L 396.725 72.536172 
L 397.69375 68.26565 
L 398.6625 67.36326 
L 399.63125 70.022274 
L 400.6 76.282856 
L 401.56875 86.018837 
L 402.5375 98.924642 
L 403.50625 114.50368 
L 405.44375 150.724575 
L 407.38125 187.099963 
L 408.35 202.491464 
L 409.31875 214.481383 
L 410.2875 222.036381 
L 411.25625 224.304941 
L 412.225 220.690334 
L 413.19375 210.932054 
L 414.1625 195.19719 
L 415.13125 174.171807 
L 417.06875 121.951068 
L 418.0375 95.059326 
L 419.00625 71.269393 
L 419.975 53.539059 
L 420.94375 44.64 
L 421.9125 46.762053 
L 422.88125 61.066144 
L 423.85 87.2116 
L 424.81875 122.921785 
L 426.75625 203.072093 
L 427.725 233.116807 
L 428.69375 246.24 
L 429.6625 237.267353 
L 430.63125 205.814297 
L 433.5375 63.950992 
L 434.50625 46.921821 
L 435.475 60.427569 
L 436.44375 99.476166 
L 437.4125 149.075468 
L 438.38125 190.177007 
L 439.35 207.878207 
L 440.31875 197.768282 
L 441.2875 167.250735 
L 442.25625 131.372536 
L 443.225 105.501276 
L 444.19375 98.60325 
L 445.1625 110.241654 
L 447.1 153.516485 
L 448.06875 165.417886 
L 449.0375 164.907084 
L 450.00625 154.738195 
L 450.975 141.104437 
L 451.94375 130.347145 
L 452.9125 126.312795 
L 453.88125 129.297651 
L 455.81875 144.464391 
L 456.7875 149.39227 
L 457.75625 149.953102 
L 458.725 146.783284 
L 459.69375 141.978192 
L 460.6625 137.929354 
L 461.63125 136.241452 
L 462.6 137.187021 
L 464.5375 142.743014 
L 465.50625 144.603559 
L 466.475 144.864409 
L 467.44375 143.764796 
L 468.4125 142.069277 
L 469.38125 140.628116 
L 470.35 140.002389 
L 471.31875 140.296341 
L 474.225 143.036223 
L 475.19375 143.269648 
L 476.1625 143.009637 
L 478.1 141.981654 
L 479.06875 141.72485 
L 480.0375 141.787403 
L 483.9125 142.932247 
L 485.85 142.74625 
L 487.7875 142.515958 
L 489.725 142.649795 
L 492.63125 143.009496 
L 495.5375 142.997852 
L 498.44375 143.050399 
L 504.25625 143.312915 
L 518.7875 143.615562 
L 518.7875 143.615562 
" clip-path="url(#p03eb09dd69)" style="fill: none; stroke: #1f77b4; stroke-width: 1.5; stroke-linecap: square"/>
   </g>
   <g id="patch_3">
    <path d="M 72 256.32 
L 72 34.56 
" style="fill: none; stroke: #808080; stroke-width: 0.8; stroke-linejoin: miter; stroke-linecap: square"/>
   </g>
   <g id="patch_4">
    <path d="M 518.4 256.32 
L 518.4 34.56 
" style="fill: none; stroke: #808080; stroke-width: 0.8; stroke-linejoin: miter; stroke-linecap: square"/>
   </g>
   <g id="patch_5">
    <path d="M 72 256.32 
L 518.4 256.32 
" style="fill: none; stroke: #808080; stroke-width: 0.8; stroke-linejoin: miter; stroke-linecap: square"/>
   </g>
   <g id="patch_6">
    <path d="M 72 34.56 
L 518.4 34.56 
" style="fill: none; stroke: #808080; stroke-width: 0.8; stroke-linejoin: miter; stroke-linecap: square"/>
   </g>
   <g id="matplotlib.axis_1">
    <g id="xtick_1">
     <g id="line2d_2">
      <path d="M 121.6 256.32 
L 121.6 34.56 
" clip-path="url(#p03eb09dd69)" style="fill: none; stroke: #b0b0b0; stroke-width: 0.5; stroke-linecap: square"/>
     </g>
     <g id="line2d_3">
      <defs>
       <path id="m7b87c50d47" d="M 0 0 
L 0 3.5 
" style="stroke: #000000; stroke-width: 0.8"/>
      </defs>
      <g>
       <use xlink:href="#m7b87c50d47" x="121.6" y="256.32" style="stroke: #000000; stroke-width: 0.8"/>
      </g>
     </g>
     <g id="text_1">
      <!-- $\mathdefault{2.8}$ -->
      <g transform="translate(112.18 272.438125) scale(0.12 -0.12)">
       <defs>
        <path id="DejaVuSans-32" d="M 1228 531 
L 3431 531 
L 3431 0 
L 469 0 
L 469 531 
Q 828 903 1448 1529 
Q 2069 2156 2228 2338 
Q 2531 2678 2651 2914 
Q 2772 3150 2772 3378 
Q 2772 3750 2511 3984 
Q 2250 4219 1831 4219 
Q 1534 4219 1204 4116 
Q 875 4013 500 3803 
L 500 4441 
Q 881 4594 1212 4672 
Q 1544 4750 1819 4750 
Q 2544 4750 2975 4387 
Q 3406 4025 3406 3419 
Q 3406 3131 3298 2873 
Q 3191 2616 2906 2266 
Q 2828 2175 2409 1742 
Q 1991 1309 1228 531 
z
" transform="scale(0.015625)"/>
        <path id="DejaVuSans-2e" d="M 684 794 
L 1344 794 
L 1344 0 
L 684 0 
L 684 794 
z
" transform="scale(0.015625)"/>
        <path id="DejaVuSans-38" d="M 2034 2216 
Q 1584 2216 1326 1975 
Q 1069 1734 1069 1313 
Q 1069 891 1326 650 
Q 1584 409 2034 409 
Q 2484 409 2743 651 
Q 3003 894 3003 1313 
Q 3003 1734 2745 1975 
Q 2488 2216 2034 2216 
z
M 1403 2484 
Q 997 2584 770 2862 
Q 544 3141 544 3541 
Q 544 4100 942 4425 
Q 1341 4750 2034 4750 
Q 2731 4750 3128 4425 
Q 3525 4100 3525 3541 
Q 3525 3141 3298 2862 
Q 3072 2584 2669 2484 
Q 3125 2378 3379 2068 
Q 3634 1759 3634 1313 
Q 3634 634 3220 271 
Q 2806 -91 2034 -91 
Q 1263 -91 848 271 
Q 434 634 434 1313 
Q 434 1759 690 2068 
Q 947 2378 1403 2484 
z
M 1172 3481 
Q 1172 3119 1398 2916 
Q 1625 2713 2034 2713 
Q 2441 2713 2670 2916 
Q 2900 3119 2900 3481 
Q 2900 3844 2670 4047 
Q 2441 4250 2034 4250 
Q 1625 4250 1398 4047 
Q 1172 3844 1172 3481 
z
" transform="scale(0.015625)"/>
       </defs>
       <use xlink:href="#DejaVuSans-32" transform="translate(0 0.78125)"/>
       <use xlink:href="#DejaVuSans-2e" transform="translate(63.623047 0.78125)"/>
       <use xlink:href="#DejaVuSans-38" transform="translate(92.785156 0.78125)"/>
      </g>
     </g>
    </g>
    <g id="xtick_2">
     <g id="line2d_4">
      <path d="M 220.8 256.32 
L 220.8 34.56 
" clip-path="url(#p03eb09dd69)" style="fill: none; stroke: #b0b0b0; stroke-width: 0.5; stroke-linecap: square"/>
     </g>
     <g id="line2d_5">
      <g>
       <use xlink:href="#m7b87c50d47" x="220.8" y="256.32" style="stroke: #000000; stroke-width: 0.8"/>
      </g>
     </g>
     <g id="text_2">
      <!-- $\mathdefault{2.9}$ -->
      <g transform="translate(211.2 272.438125) scale(0.12 -0.12)">
       <defs>
        <path id="DejaVuSans-39" d="M 703 97 
L 703 672 
Q 941 559 1184 500 
Q 1428 441 1663 441 
Q 2288 441 2617 861 
Q 2947 1281 2994 2138 
Q 2813 1869 2534 1725 
Q 2256 1581 1919 1581 
Q 1219 1581 811 2004 
Q 403 2428 403 3163 
Q 403 3881 828 4315 
Q 1253 4750 1959 4750 
Q 2769 4750 3195 4129 
Q 3622 3509 3622 2328 
Q 3622 1225 3098 567 
Q 2575 -91 1691 -91 
Q 1453 -91 1209 -44 
Q 966 3 703 97 
z
M 1959 2075 
Q 2384 2075 2632 2365 
Q 2881 2656 2881 3163 
Q 2881 3666 2632 3958 
Q 2384 4250 1959 4250 
Q 1534 4250 1286 3958 
Q 1038 3666 1038 3163 
Q 1038 2656 1286 2365 
Q 1534 2075 1959 2075 
z
" transform="scale(0.015625)"/>
       </defs>
       <use xlink:href="#DejaVuSans-32" transform="translate(0 0.78125)"/>
       <use xlink:href="#DejaVuSans-2e" transform="translate(63.623047 0.78125)"/>
       <use xlink:href="#DejaVuSans-39" transform="translate(95.410156 0.78125)"/>
      </g>
     </g>
    </g>
    <g id="xtick_3">
     <g id="line2d_6">
      <path d="M 320 256.32 
L 320 34.56 
" clip-path="url(#p03eb09dd69)" style="fill: none; stroke: #b0b0b0; stroke-width: 0.5; stroke-linecap: square"/>
     </g>
     <g id="line2d_7">
      <g>
       <use xlink:href="#m7b87c50d47" x="320" y="256.32" style="stroke: #000000; stroke-width: 0.8"/>
      </g>
     </g>
     <g id="text_3">
      <!-- $\mathdefault{3.0}$ -->
      <g transform="translate(310.4 272.438125) scale(0.12 -0.12)">
       <defs>
        <path id="DejaVuSans-33" d="M 2597 2516 
Q 3050 2419 3304 2112 
Q 3559 1806 3559 1356 
Q 3559 666 3084 287 
Q 2609 -91 1734 -91 
Q 1441 -91 1130 -33 
Q 819 25 488 141 
L 488 750 
Q 750 597 1062 519 
Q 1375 441 1716 441 
Q 2309 441 2620 675 
Q 2931 909 2931 1356 
Q 2931 1769 2642 2001 
Q 2353 2234 1838 2234 
L 1294 2234 
L 1294 2753 
L 1863 2753 
Q 2328 2753 2575 2939 
Q 2822 3125 2822 3475 
Q 2822 3834 2567 4026 
Q 2313 4219 1838 4219 
Q 1578 4219 1281 4162 
Q 984 4106 628 3988 
L 628 4550 
Q 988 4650 1302 4700 
Q 1616 4750 1894 4750 
Q 2613 4750 3031 4423 
Q 3450 4097 3450 3541 
Q 3450 3153 3228 2886 
Q 3006 2619 2597 2516 
z
" transform="scale(0.015625)"/>
        <path id="DejaVuSans-30" d="M 2034 4250 
Q 1547 4250 1301 3770 
Q 1056 3291 1056 2328 
Q 1056 1369 1301 889 
Q 1547 409 2034 409 
Q 2525 409 2770 889 
Q 3016 1369 3016 2328 
Q 3016 3291 2770 3770 
Q 2525 4250 2034 4250 
z
M 2034 4750 
Q 2819 4750 3233 4129 
Q 3647 3509 3647 2328 
Q 3647 1150 3233 529 
Q 2819 -91 2034 -91 
Q 1250 -91 836 529 
Q 422 1150 422 2328 
Q 422 3509 836 4129 
Q 1250 4750 2034 4750 
z
" transform="scale(0.015625)"/>
       </defs>
       <use xlink:href="#DejaVuSans-33" transform="translate(0 0.78125)"/>
       <use xlink:href="#DejaVuSans-2e" transform="translate(63.623047 0.78125)"/>
       <use xlink:href="#DejaVuSans-30" transform="translate(95.410156 0.78125)"/>
      </g>
     </g>
    </g>
    <g id="xtick_4">
     <g id="line2d_8">
      <path d="M 419.2 256.32 
L 419.2 34.56 
" clip-path="url(#p03eb09dd69)" style="fill: none; stroke: #b0b0b0; stroke-width: 0.5; stroke-linecap: square"/>
     </g>
     <g id="line2d_9">
      <g>
       <use xlink:href="#m7b87c50d47" x="419.2" y="256.32" style="stroke: #000000; stroke-width: 0.8"/>
      </g>
     </g>
     <g id="text_4">
      <!-- $\mathdefault{3.1}$ -->
      <g transform="translate(409.6 272.438125) scale(0.12 -0.12)">
       <defs>
        <path id="DejaVuSans-31" d="M 794 531 
L 1825 531 
L 1825 4091 
L 703 3866 
L 703 4441 
L 1819 4666 
L 2450 4666 
L 2450 531 
L 3481 531 
L 3481 0 
L 794 0 
L 794 531 
z
" transform="scale(0.015625)"/>
       </defs>
       <use xlink:href="#DejaVuSans-33" transform="translate(0 0.78125)"/>
       <use xlink:href="#DejaVuSans-2e" transform="translate(63.623047 0.78125)"/>
       <use xlink:href="#DejaVuSans-31" transform="translate(95.410156 0.78125)"/>
      </g>
     </g>
    </g>
    <g id="xtick_5">
     <g id="line2d_10">
      <path d="M 518.4 256.32 
L 518.4 34.56 
" clip-path="url(#p03eb09dd69)" style="fill: none; stroke: #b0b0b0; stroke-width: 0.5; stroke-linecap: square"/>
     </g>
     <g id="line2d_11">
      <g>
       <use xlink:href="#m7b87c50d47" x="518.4" y="256.32" style="stroke: #000000; stroke-width: 0.8"/>
      </g>
     </g>
     <g id="text_5">
      <!-- $\mathdefault{3.2}$ -->
      <g transform="translate(509.16 272.438125) scale(0.12 -0.12)">
       <use xlink:href="#DejaVuSans-33" transform="translate(0 0.78125)"/>
       <use xlink:href="#DejaVuSans-2e" transform="translate(63.623047 0.78125)"/>
       <use xlink:href="#DejaVuSans-32" transform="translate(89.910156 0.78125)"/>
      </g>
     </g>
    </g>
    <g id="text_6">
     <!-- Time [s] -->
     <g transform="translate(265.926375 290.8755) scale(0.144 -0.144)">
      <defs>
       <path id="DejaVuSans-54" d="M -19 4666 
L 3928 4666 
L 3928 4134 
L 2272 4134 
L 2272 0 
L 1638 0 
L 1638 4134 
L -19 4134 
L -19 4666 
z
" transform="scale(0.015625)"/>
       <path id="DejaVuSans-69" d="M 603 3500 
L 1178 3500 
L 1178 0 
L 603 0 
L 603 3500 
z
M 603 4863 
L 1178 4863 
L 1178 4134 
L 603 4134 
L 603 4863 
z
" transform="scale(0.015625)"/>
       <path id="DejaVuSans-6d" d="M 3328 2828 
Q 3544 3216 3844 3400 
Q 4144 3584 4550 3584 
Q 5097 3584 5394 3201 
Q 5691 2819 5691 2113 
L 5691 0 
L 5113 0 
L 5113 2094 
Q 5113 2597 4934 2840 
Q 4756 3084 4391 3084 
Q 3944 3084 3684 2787 
Q 3425 2491 3425 1978 
L 3425 0 
L 2847 0 
L 2847 2094 
Q 2847 2600 2669 2842 
Q 2491 3084 2119 3084 
Q 1678 3084 1418 2786 
Q 1159 2488 1159 1978 
L 1159 0 
L 581 0 
L 581 3500 
L 1159 3500 
L 1159 2956 
Q 1356 3278 1631 3431 
Q 1906 3584 2284 3584 
Q 2666 3584 2933 3390 
Q 3200 3197 3328 2828 
z
" transform="scale(0.015625)"/>
       <path id="DejaVuSans-65" d="M 3597 1894 
L 3597 1613 
L 953 1613 
Q 991 1019 1311 708 
Q 1631 397 2203 397 
Q 2534 397 2845 478 
Q 3156 559 3463 722 
L 3463 178 
Q 3153 47 2828 -22 
Q 2503 -91 2169 -91 
Q 1331 -91 842 396 
Q 353 884 353 1716 
Q 353 2575 817 3079 
Q 1281 3584 2069 3584 
Q 2775 3584 3186 3129 
Q 3597 2675 3597 1894 
z
M 3022 2063 
Q 3016 2534 2758 2815 
Q 2500 3097 2075 3097 
Q 1594 3097 1305 2825 
Q 1016 2553 972 2059 
L 3022 2063 
z
" transform="scale(0.015625)"/>
       <path id="DejaVuSans-20" transform="scale(0.015625)"/>
       <path id="DejaVuSans-5b" d="M 550 4863 
L 1875 4863 
L 1875 4416 
L 1125 4416 
L 1125 -397 
L 1875 -397 
L 1875 -844 
L 550 -844 
L 550 4863 
z
" transform="scale(0.015625)"/>
       <path id="DejaVuSans-73" d="M 2834 3397 
L 2834 2853 
Q 2591 2978 2328 3040 
Q 2066 3103 1784 3103 
Q 1356 3103 1142 2972 
Q 928 2841 928 2578 
Q 928 2378 1081 2264 
Q 1234 2150 1697 2047 
L 1894 2003 
Q 2506 1872 2764 1633 
Q 3022 1394 3022 966 
Q 3022 478 2636 193 
Q 2250 -91 1575 -91 
Q 1294 -91 989 -36 
Q 684 19 347 128 
L 347 722 
Q 666 556 975 473 
Q 1284 391 1588 391 
Q 1994 391 2212 530 
Q 2431 669 2431 922 
Q 2431 1156 2273 1281 
Q 2116 1406 1581 1522 
L 1381 1569 
Q 847 1681 609 1914 
Q 372 2147 372 2553 
Q 372 3047 722 3315 
Q 1072 3584 1716 3584 
Q 2034 3584 2315 3537 
Q 2597 3491 2834 3397 
z
" transform="scale(0.015625)"/>
       <path id="DejaVuSans-5d" d="M 1947 4863 
L 1947 -844 
L 622 -844 
L 622 -397 
L 1369 -397 
L 1369 4416 
L 622 4416 
L 622 4863 
L 1947 4863 
z
" transform="scale(0.015625)"/>
      </defs>
      <use xlink:href="#DejaVuSans-54"/>
      <use xlink:href="#DejaVuSans-69" x="57.958984"/>
      <use xlink:href="#DejaVuSans-6d" x="85.742188"/>
      <use xlink:href="#DejaVuSans-65" x="183.154297"/>
      <use xlink:href="#DejaVuSans-20" x="244.677734"/>
      <use xlink:href="#DejaVuSans-5b" x="276.464844"/>
      <use xlink:href="#DejaVuSans-73" x="315.478516"/>
      <use xlink:href="#DejaVuSans-5d" x="367.578125"/>
     </g>
    </g>
   </g>
   <g id="matplotlib.axis_2">
    <g id="ytick_1">
     <g id="line2d_12">
      <path d="M 72 242.661568 
L 518.4 242.661568 
" clip-path="url(#p03eb09dd69)" style="fill: none; stroke: #b0b0b0; stroke-width: 0.5; stroke-linecap: square"/>
     </g>
     <g id="line2d_13">
      <defs>
       <path id="mb6c239f7c6" d="M 0 0 
L -3.5 0 
" style="stroke: #000000; stroke-width: 0.8"/>
      </defs>
      <g>
       <use xlink:href="#mb6c239f7c6" x="72" y="242.661568" style="stroke: #000000; stroke-width: 0.8"/>
      </g>
     </g>
     <g id="text_7">
      <!-- $\mathdefault{−1.5}$ -->
      <g transform="translate(35.84 247.22063) scale(0.12 -0.12)">
       <defs>
        <path id="DejaVuSans-2212" d="M 678 2272 
L 4684 2272 
L 4684 1741 
L 678 1741 
L 678 2272 
z
" transform="scale(0.015625)"/>
        <path id="DejaVuSans-35" d="M 691 4666 
L 3169 4666 
L 3169 4134 
L 1269 4134 
L 1269 2991 
Q 1406 3038 1543 3061 
Q 1681 3084 1819 3084 
Q 2600 3084 3056 2656 
Q 3513 2228 3513 1497 
Q 3513 744 3044 326 
Q 2575 -91 1722 -91 
Q 1428 -91 1123 -41 
Q 819 9 494 109 
L 494 744 
Q 775 591 1075 516 
Q 1375 441 1709 441 
Q 2250 441 2565 725 
Q 2881 1009 2881 1497 
Q 2881 1984 2565 2268 
Q 2250 2553 1709 2553 
Q 1456 2553 1204 2497 
Q 953 2441 691 2322 
L 691 4666 
z
" transform="scale(0.015625)"/>
       </defs>
       <use xlink:href="#DejaVuSans-2212" transform="translate(0 0.09375)"/>
       <use xlink:href="#DejaVuSans-31" transform="translate(83.789062 0.09375)"/>
       <use xlink:href="#DejaVuSans-2e" transform="translate(147.412109 0.09375)"/>
       <use xlink:href="#DejaVuSans-35" transform="translate(179.199219 0.09375)"/>
      </g>
     </g>
    </g>
    <g id="ytick_2">
     <g id="line2d_14">
      <path d="M 72 209.180562 
L 518.4 209.180562 
" clip-path="url(#p03eb09dd69)" style="fill: none; stroke: #b0b0b0; stroke-width: 0.5; stroke-linecap: square"/>
     </g>
     <g id="line2d_15">
      <g>
       <use xlink:href="#mb6c239f7c6" x="72" y="209.180562" style="stroke: #000000; stroke-width: 0.8"/>
      </g>
     </g>
     <g id="text_8">
      <!-- $\mathdefault{−1.0}$ -->
      <g transform="translate(35.84 213.739624) scale(0.12 -0.12)">
       <use xlink:href="#DejaVuSans-2212" transform="translate(0 0.78125)"/>
       <use xlink:href="#DejaVuSans-31" transform="translate(83.789062 0.78125)"/>
       <use xlink:href="#DejaVuSans-2e" transform="translate(147.412109 0.78125)"/>
       <use xlink:href="#DejaVuSans-30" transform="translate(179.199219 0.78125)"/>
      </g>
     </g>
    </g>
    <g id="ytick_3">
     <g id="line2d_16">
      <path d="M 72 175.699555 
L 518.4 175.699555 
" clip-path="url(#p03eb09dd69)" style="fill: none; stroke: #b0b0b0; stroke-width: 0.5; stroke-linecap: square"/>
     </g>
     <g id="line2d_17">
      <g>
       <use xlink:href="#mb6c239f7c6" x="72" y="175.699555" style="stroke: #000000; stroke-width: 0.8"/>
      </g>
     </g>
     <g id="text_9">
      <!-- $\mathdefault{−0.5}$ -->
      <g transform="translate(35.84 180.258618) scale(0.12 -0.12)">
       <use xlink:href="#DejaVuSans-2212" transform="translate(0 0.78125)"/>
       <use xlink:href="#DejaVuSans-30" transform="translate(83.789062 0.78125)"/>
       <use xlink:href="#DejaVuSans-2e" transform="translate(147.412109 0.78125)"/>
       <use xlink:href="#DejaVuSans-35" transform="translate(179.199219 0.78125)"/>
      </g>
     </g>
    </g>
    <g id="ytick_4">
     <g id="line2d_18">
      <path d="M 72 142.218549 
L 518.4 142.218549 
" clip-path="url(#p03eb09dd69)" style="fill: none; stroke: #b0b0b0; stroke-width: 0.5; stroke-linecap: square"/>
     </g>
     <g id="line2d_19">
      <g>
       <use xlink:href="#mb6c239f7c6" x="72" y="142.218549" style="stroke: #000000; stroke-width: 0.8"/>
      </g>
     </g>
     <g id="text_10">
      <!-- $\mathdefault{0.0}$ -->
      <g transform="translate(45.8 146.777612) scale(0.12 -0.12)">
       <use xlink:href="#DejaVuSans-30" transform="translate(0 0.78125)"/>
       <use xlink:href="#DejaVuSans-2e" transform="translate(63.623047 0.78125)"/>
       <use xlink:href="#DejaVuSans-30" transform="translate(95.410156 0.78125)"/>
      </g>
     </g>
    </g>
    <g id="ytick_5">
     <g id="line2d_20">
      <path d="M 72 108.737543 
L 518.4 108.737543 
" clip-path="url(#p03eb09dd69)" style="fill: none; stroke: #b0b0b0; stroke-width: 0.5; stroke-linecap: square"/>
     </g>
     <g id="line2d_21">
      <g>
       <use xlink:href="#mb6c239f7c6" x="72" y="108.737543" style="stroke: #000000; stroke-width: 0.8"/>
      </g>
     </g>
     <g id="text_11">
      <!-- $\mathdefault{0.5}$ -->
      <g transform="translate(45.8 113.296606) scale(0.12 -0.12)">
       <use xlink:href="#DejaVuSans-30" transform="translate(0 0.78125)"/>
       <use xlink:href="#DejaVuSans-2e" transform="translate(63.623047 0.78125)"/>
       <use xlink:href="#DejaVuSans-35" transform="translate(95.410156 0.78125)"/>
      </g>
     </g>
    </g>
    <g id="ytick_6">
     <g id="line2d_22">
      <path d="M 72 75.256537 
L 518.4 75.256537 
" clip-path="url(#p03eb09dd69)" style="fill: none; stroke: #b0b0b0; stroke-width: 0.5; stroke-linecap: square"/>
     </g>
     <g id="line2d_23">
      <g>
       <use xlink:href="#mb6c239f7c6" x="72" y="75.256537" style="stroke: #000000; stroke-width: 0.8"/>
      </g>
     </g>
     <g id="text_12">
      <!-- $\mathdefault{1.0}$ -->
      <g transform="translate(45.8 79.815599) scale(0.12 -0.12)">
       <use xlink:href="#DejaVuSans-31" transform="translate(0 0.78125)"/>
       <use xlink:href="#DejaVuSans-2e" transform="translate(63.623047 0.78125)"/>
       <use xlink:href="#DejaVuSans-30" transform="translate(95.410156 0.78125)"/>
      </g>
     </g>
    </g>
    <g id="ytick_7">
     <g id="line2d_24">
      <path d="M 72 41.775531 
L 518.4 41.775531 
" clip-path="url(#p03eb09dd69)" style="fill: none; stroke: #b0b0b0; stroke-width: 0.5; stroke-linecap: square"/>
     </g>
     <g id="line2d_25">
      <g>
       <use xlink:href="#mb6c239f7c6" x="72" y="41.775531" style="stroke: #000000; stroke-width: 0.8"/>
      </g>
     </g>
     <g id="text_13">
      <!-- $\mathdefault{1.5}$ -->
      <g transform="translate(45.8 46.334593) scale(0.12 -0.12)">
       <use xlink:href="#DejaVuSans-31" transform="translate(0 0.09375)"/>
       <use xlink:href="#DejaVuSans-2e" transform="translate(63.623047 0.09375)"/>
       <use xlink:href="#DejaVuSans-35" transform="translate(95.410156 0.09375)"/>
      </g>
     </g>
    </g>
    <g id="text_14">
     <!-- Strain -->
     <g transform="translate(27.84525 166.768875) rotate(-90) scale(0.144 -0.144)">
      <defs>
       <path id="DejaVuSans-53" d="M 3425 4513 
L 3425 3897 
Q 3066 4069 2747 4153 
Q 2428 4238 2131 4238 
Q 1616 4238 1336 4038 
Q 1056 3838 1056 3469 
Q 1056 3159 1242 3001 
Q 1428 2844 1947 2747 
L 2328 2669 
Q 3034 2534 3370 2195 
Q 3706 1856 3706 1288 
Q 3706 609 3251 259 
Q 2797 -91 1919 -91 
Q 1588 -91 1214 -16 
Q 841 59 441 206 
L 441 856 
Q 825 641 1194 531 
Q 1563 422 1919 422 
Q 2459 422 2753 634 
Q 3047 847 3047 1241 
Q 3047 1584 2836 1778 
Q 2625 1972 2144 2069 
L 1759 2144 
Q 1053 2284 737 2584 
Q 422 2884 422 3419 
Q 422 4038 858 4394 
Q 1294 4750 2059 4750 
Q 2388 4750 2728 4690 
Q 3069 4631 3425 4513 
z
" transform="scale(0.015625)"/>
       <path id="DejaVuSans-74" d="M 1172 4494 
L 1172 3500 
L 2356 3500 
L 2356 3053 
L 1172 3053 
L 1172 1153 
Q 1172 725 1289 603 
Q 1406 481 1766 481 
L 2356 481 
L 2356 0 
L 1766 0 
Q 1100 0 847 248 
Q 594 497 594 1153 
L 594 3053 
L 172 3053 
L 172 3500 
L 594 3500 
L 594 4494 
L 1172 4494 
z
" transform="scale(0.015625)"/>
       <path id="DejaVuSans-72" d="M 2631 2963 
Q 2534 3019 2420 3045 
Q 2306 3072 2169 3072 
Q 1681 3072 1420 2755 
Q 1159 2438 1159 1844 
L 1159 0 
L 581 0 
L 581 3500 
L 1159 3500 
L 1159 2956 
Q 1341 3275 1631 3429 
Q 1922 3584 2338 3584 
Q 2397 3584 2469 3576 
Q 2541 3569 2628 3553 
L 2631 2963 
z
" transform="scale(0.015625)"/>
       <path id="DejaVuSans-61" d="M 2194 1759 
Q 1497 1759 1228 1600 
Q 959 1441 959 1056 
Q 959 750 1161 570 
Q 1363 391 1709 391 
Q 2188 391 2477 730 
Q 2766 1069 2766 1631 
L 2766 1759 
L 2194 1759 
z
M 3341 1997 
L 3341 0 
L 2766 0 
L 2766 531 
Q 2569 213 2275 61 
Q 1981 -91 1556 -91 
Q 1019 -91 701 211 
Q 384 513 384 1019 
Q 384 1609 779 1909 
Q 1175 2209 1959 2209 
L 2766 2209 
L 2766 2266 
Q 2766 2663 2505 2880 
Q 2244 3097 1772 3097 
Q 1472 3097 1187 3025 
Q 903 2953 641 2809 
L 641 3341 
Q 956 3463 1253 3523 
Q 1550 3584 1831 3584 
Q 2591 3584 2966 3190 
Q 3341 2797 3341 1997 
z
" transform="scale(0.015625)"/>
       <path id="DejaVuSans-6e" d="M 3513 2113 
L 3513 0 
L 2938 0 
L 2938 2094 
Q 2938 2591 2744 2837 
Q 2550 3084 2163 3084 
Q 1697 3084 1428 2787 
Q 1159 2491 1159 1978 
L 1159 0 
L 581 0 
L 581 3500 
L 1159 3500 
L 1159 2956 
Q 1366 3272 1645 3428 
Q 1925 3584 2291 3584 
Q 2894 3584 3203 3211 
Q 3513 2838 3513 2113 
z
" transform="scale(0.015625)"/>
      </defs>
      <use xlink:href="#DejaVuSans-53"/>
      <use xlink:href="#DejaVuSans-74" x="63.476562"/>
      <use xlink:href="#DejaVuSans-72" x="102.685547"/>
      <use xlink:href="#DejaVuSans-61" x="143.798828"/>
      <use xlink:href="#DejaVuSans-69" x="205.078125"/>
      <use xlink:href="#DejaVuSans-6e" x="232.861328"/>
     </g>
    </g>
    <g id="text_15">
     <!-- $\times\mathdefault{10^{−21}}\mathdefault{}$ -->
     <g transform="translate(72 31.56) scale(0.12 -0.12)">
      <defs>
       <path id="DejaVuSans-d7" d="M 4488 3438 
L 3059 2003 
L 4488 575 
L 4116 197 
L 2681 1631 
L 1247 197 
L 878 575 
L 2303 2003 
L 878 3438 
L 1247 3816 
L 2681 2381 
L 4116 3816 
L 4488 3438 
z
" transform="scale(0.015625)"/>
      </defs>
      <use xlink:href="#DejaVuSans-d7" transform="translate(0 0.765625)"/>
      <use xlink:href="#DejaVuSans-31" transform="translate(83.789062 0.765625)"/>
      <use xlink:href="#DejaVuSans-30" transform="translate(147.412109 0.765625)"/>
      <use xlink:href="#DejaVuSans-2212" transform="translate(211.992188 39.046875) scale(0.7)"/>
      <use xlink:href="#DejaVuSans-32" transform="translate(270.644531 39.046875) scale(0.7)"/>
      <use xlink:href="#DejaVuSans-31" transform="translate(315.180664 39.046875) scale(0.7)"/>
     </g>
    </g>
   </g>
  </g>
 </g>
 <defs>
  <clipPath id="p03eb09dd69">
   <rect x="72" y="34.56" width="446.4" height="221.76"/>
  </clipPath>
 </defs>
</svg>
