<?xml version="1.0" encoding="utf-8" standalone="no"?>
<!DOCTYPE svg PUBLIC "-//W3C//DTD SVG 1.1//EN"
  "http://www.w3.org/Graphics/SVG/1.1/DTD/svg11.dtd">
<svg xmlns:xlink="http://www.w3.org/1999/xlink" width="460.8pt" height="345.6pt" viewBox="0 0 460.8 345.6" xmlns="http://www.w3.org/2000/svg" version="1.1">
 <metadata>
  <rdf:RDF xmlns:dc="http://purl.org/dc/elements/1.1/" xmlns:cc="http://creativecommons.org/ns#" xmlns:rdf="http://www.w3.org/1999/02/22-rdf-syntax-ns#">
   <cc:Work>
    <dc:type rdf:resource="http://purl.org/dc/dcmitype/StillImage"/>
    <dc:date>2025-07-17T14:18:06.339800</dc:date>
    <dc:format>image/svg+xml</dc:format>
    <dc:creator>
     <cc:Agent>
      <dc:title>Matplotlib v3.8.0, https://matplotlib.org/</dc:title>
     </cc:Agent>
    </dc:creator>
   </cc:Work>
  </rdf:RDF>
 </metadata>
 <defs>
  <style type="text/css">*{stroke-linejoin: round; stroke-linecap: butt}</style>
 </defs>
 <g id="figure_1">
  <g id="patch_1">
   <path d="M 0 345.6 
L 460.8 345.6 
L 460.8 0 
L 0 0 
z
" style="fill: #ffffff"/>
  </g>
  <g id="axes_1">
   <g id="patch_2">
    <path d="M 57.6 307.584 
L 414.72 307.584 
L 414.72 41.472 
L 57.6 41.472 
z
" style="fill: #ffffff"/>
   </g>
   <g id="matplotlib.axis_1">
    <g id="xtick_1">
     <g id="line2d_1">
      <path d="M 90.065455 307.584 
L 90.065455 41.472 
" clip-path="url(#p05dcdb24b8)" style="fill: none; stroke: #b0b0b0; stroke-width: 0.4; stroke-linecap: square"/>
     </g>
     <g id="line2d_2">
      <defs>
       <path id="m203f818a5e" d="M 0 0 
L 0 3.5 
" style="stroke: #000000; stroke-width: 0.8"/>
      </defs>
      <g>
       <use xlink:href="#m203f818a5e" x="90.065455" y="307.584" style="stroke: #000000; stroke-width: 0.8"/>
      </g>
     </g>
     <g id="text_1">
      <!-- $\mathdefault{2.2}$ -->
      <g transform="translate(80.825455 323.702125) scale(0.12 -0.12)">
       <defs>
        <path id="DejaVuSans-32" d="M 1228 531 
L 3431 531 
L 3431 0 
L 469 0 
L 469 531 
Q 828 903 1448 1529 
Q 2069 2156 2228 2338 
Q 2531 2678 2651 2914 
Q 2772 3150 2772 3378 
Q 2772 3750 2511 3984 
Q 2250 4219 1831 4219 
Q 1534 4219 1204 4116 
Q 875 4013 500 3803 
L 500 4441 
Q 881 4594 1212 4672 
Q 1544 4750 1819 4750 
Q 2544 4750 2975 4387 
Q 3406 4025 3406 3419 
Q 3406 3131 3298 2873 
Q 3191 2616 2906 2266 
Q 2828 2175 2409 1742 
Q 1991 1309 1228 531 
z
" transform="scale(0.015625)"/>
        <path id="DejaVuSans-2e" d="M 684 794 
L 1344 794 
L 1344 0 
L 684 0 
L 684 794 
z
" transform="scale(0.015625)"/>
       </defs>
       <use xlink:href="#DejaVuSans-32" transform="translate(0 0.78125)"/>
       <use xlink:href="#DejaVuSans-2e" transform="translate(63.623047 0.78125)"/>
       <use xlink:href="#DejaVuSans-32" transform="translate(89.910156 0.78125)"/>
      </g>
     </g>
    </g>
    <g id="xtick_2">
     <g id="line2d_3">
      <path d="M 154.996364 307.584 
L 154.996364 41.472 
" clip-path="url(#p05dcdb24b8)" style="fill: none; stroke: #b0b0b0; stroke-width: 0.4; stroke-linecap: square"/>
     </g>
     <g id="line2d_4">
      <g>
       <use xlink:href="#m203f818a5e" x="154.996364" y="307.584" style="stroke: #000000; stroke-width: 0.8"/>
      </g>
     </g>
     <g id="text_2">
      <!-- $\mathdefault{2.4}$ -->
      <g transform="translate(145.396364 323.702125) scale(0.12 -0.12)">
       <defs>
        <path id="DejaVuSans-34" d="M 2419 4116 
L 825 1625 
L 2419 1625 
L 2419 4116 
z
M 2253 4666 
L 3047 4666 
L 3047 1625 
L 3713 1625 
L 3713 1100 
L 3047 1100 
L 3047 0 
L 2419 0 
L 2419 1100 
L 313 1100 
L 313 1709 
L 2253 4666 
z
" transform="scale(0.015625)"/>
       </defs>
       <use xlink:href="#DejaVuSans-32" transform="translate(0 0.78125)"/>
       <use xlink:href="#DejaVuSans-2e" transform="translate(63.623047 0.78125)"/>
       <use xlink:href="#DejaVuSans-34" transform="translate(95.410156 0.78125)"/>
      </g>
     </g>
    </g>
    <g id="xtick_3">
     <g id="line2d_5">
      <path d="M 219.927273 307.584 
L 219.927273 41.472 
" clip-path="url(#p05dcdb24b8)" style="fill: none; stroke: #b0b0b0; stroke-width: 0.4; stroke-linecap: square"/>
     </g>
     <g id="line2d_6">
      <g>
       <use xlink:href="#m203f818a5e" x="219.927273" y="307.584" style="stroke: #000000; stroke-width: 0.8"/>
      </g>
     </g>
     <g id="text_3">
      <!-- $\mathdefault{2.6}$ -->
      <g transform="translate(210.327273 323.702125) scale(0.12 -0.12)">
       <defs>
        <path id="DejaVuSans-36" d="M 2113 2584 
Q 1688 2584 1439 2293 
Q 1191 2003 1191 1497 
Q 1191 994 1439 701 
Q 1688 409 2113 409 
Q 2538 409 2786 701 
Q 3034 994 3034 1497 
Q 3034 2003 2786 2293 
Q 2538 2584 2113 2584 
z
M 3366 4563 
L 3366 3988 
Q 3128 4100 2886 4159 
Q 2644 4219 2406 4219 
Q 1781 4219 1451 3797 
Q 1122 3375 1075 2522 
Q 1259 2794 1537 2939 
Q 1816 3084 2150 3084 
Q 2853 3084 3261 2657 
Q 3669 2231 3669 1497 
Q 3669 778 3244 343 
Q 2819 -91 2113 -91 
Q 1303 -91 875 529 
Q 447 1150 447 2328 
Q 447 3434 972 4092 
Q 1497 4750 2381 4750 
Q 2619 4750 2861 4703 
Q 3103 4656 3366 4563 
z
" transform="scale(0.015625)"/>
       </defs>
       <use xlink:href="#DejaVuSans-32" transform="translate(0 0.78125)"/>
       <use xlink:href="#DejaVuSans-2e" transform="translate(63.623047 0.78125)"/>
       <use xlink:href="#DejaVuSans-36" transform="translate(95.410156 0.78125)"/>
      </g>
     </g>
    </g>
    <g id="xtick_4">
     <g id="line2d_7">
      <path d="M 284.858182 307.584 
L 284.858182 41.472 
" clip-path="url(#p05dcdb24b8)" style="fill: none; stroke: #b0b0b0; stroke-width: 0.4; stroke-linecap: square"/>
     </g>
     <g id="line2d_8">
      <g>
       <use xlink:href="#m203f818a5e" x="284.858182" y="307.584" style="stroke: #000000; stroke-width: 0.8"/>
      </g>
     </g>
     <g id="text_4">
      <!-- $\mathdefault{2.8}$ -->
      <g transform="translate(275.438182 323.702125) scale(0.12 -0.12)">
       <defs>
        <path id="DejaVuSans-38" d="M 2034 2216 
Q 1584 2216 1326 1975 
Q 1069 1734 1069 1313 
Q 1069 891 1326 650 
Q 1584 409 2034 409 
Q 2484 409 2743 651 
Q 3003 894 3003 1313 
Q 3003 1734 2745 1975 
Q 2488 2216 2034 2216 
z
M 1403 2484 
Q 997 2584 770 2862 
Q 544 3141 544 3541 
Q 544 4100 942 4425 
Q 1341 4750 2034 4750 
Q 2731 4750 3128 4425 
Q 3525 4100 3525 3541 
Q 3525 3141 3298 2862 
Q 3072 2584 2669 2484 
Q 3125 2378 3379 2068 
Q 3634 1759 3634 1313 
Q 3634 634 3220 271 
Q 2806 -91 2034 -91 
Q 1263 -91 848 271 
Q 434 634 434 1313 
Q 434 1759 690 2068 
Q 947 2378 1403 2484 
z
M 1172 3481 
Q 1172 3119 1398 2916 
Q 1625 2713 2034 2713 
Q 2441 2713 2670 2916 
Q 2900 3119 2900 3481 
Q 2900 3844 2670 4047 
Q 2441 4250 2034 4250 
Q 1625 4250 1398 4047 
Q 1172 3844 1172 3481 
z
" transform="scale(0.015625)"/>
       </defs>
       <use xlink:href="#DejaVuSans-32" transform="translate(0 0.78125)"/>
       <use xlink:href="#DejaVuSans-2e" transform="translate(63.623047 0.78125)"/>
       <use xlink:href="#DejaVuSans-38" transform="translate(92.785156 0.78125)"/>
      </g>
     </g>
    </g>
    <g id="xtick_5">
     <g id="line2d_9">
      <path d="M 349.789091 307.584 
L 349.789091 41.472 
" clip-path="url(#p05dcdb24b8)" style="fill: none; stroke: #b0b0b0; stroke-width: 0.4; stroke-linecap: square"/>
     </g>
     <g id="line2d_10">
      <g>
       <use xlink:href="#m203f818a5e" x="349.789091" y="307.584" style="stroke: #000000; stroke-width: 0.8"/>
      </g>
     </g>
     <g id="text_5">
      <!-- $\mathdefault{3.0}$ -->
      <g transform="translate(340.189091 323.702125) scale(0.12 -0.12)">
       <defs>
        <path id="DejaVuSans-33" d="M 2597 2516 
Q 3050 2419 3304 2112 
Q 3559 1806 3559 1356 
Q 3559 666 3084 287 
Q 2609 -91 1734 -91 
Q 1441 -91 1130 -33 
Q 819 25 488 141 
L 488 750 
Q 750 597 1062 519 
Q 1375 441 1716 441 
Q 2309 441 2620 675 
Q 2931 909 2931 1356 
Q 2931 1769 2642 2001 
Q 2353 2234 1838 2234 
L 1294 2234 
L 1294 2753 
L 1863 2753 
Q 2328 2753 2575 2939 
Q 2822 3125 2822 3475 
Q 2822 3834 2567 4026 
Q 2313 4219 1838 4219 
Q 1578 4219 1281 4162 
Q 984 4106 628 3988 
L 628 4550 
Q 988 4650 1302 4700 
Q 1616 4750 1894 4750 
Q 2613 4750 3031 4423 
Q 3450 4097 3450 3541 
Q 3450 3153 3228 2886 
Q 3006 2619 2597 2516 
z
" transform="scale(0.015625)"/>
        <path id="DejaVuSans-30" d="M 2034 4250 
Q 1547 4250 1301 3770 
Q 1056 3291 1056 2328 
Q 1056 1369 1301 889 
Q 1547 409 2034 409 
Q 2525 409 2770 889 
Q 3016 1369 3016 2328 
Q 3016 3291 2770 3770 
Q 2525 4250 2034 4250 
z
M 2034 4750 
Q 2819 4750 3233 4129 
Q 3647 3509 3647 2328 
Q 3647 1150 3233 529 
Q 2819 -91 2034 -91 
Q 1250 -91 836 529 
Q 422 1150 422 2328 
Q 422 3509 836 4129 
Q 1250 4750 2034 4750 
z
" transform="scale(0.015625)"/>
       </defs>
       <use xlink:href="#DejaVuSans-33" transform="translate(0 0.78125)"/>
       <use xlink:href="#DejaVuSans-2e" transform="translate(63.623047 0.78125)"/>
       <use xlink:href="#DejaVuSans-30" transform="translate(95.410156 0.78125)"/>
      </g>
     </g>
    </g>
    <g id="xtick_6">
     <g id="line2d_11">
      <path d="M 414.72 307.584 
L 414.72 41.472 
" clip-path="url(#p05dcdb24b8)" style="fill: none; stroke: #b0b0b0; stroke-width: 0.4; stroke-linecap: square"/>
     </g>
     <g id="line2d_12">
      <g>
       <use xlink:href="#m203f818a5e" x="414.72" y="307.584" style="stroke: #000000; stroke-width: 0.8"/>
      </g>
     </g>
     <g id="text_6">
      <!-- $\mathdefault{3.2}$ -->
      <g transform="translate(405.48 323.702125) scale(0.12 -0.12)">
       <use xlink:href="#DejaVuSans-33" transform="translate(0 0.78125)"/>
       <use xlink:href="#DejaVuSans-2e" transform="translate(63.623047 0.78125)"/>
       <use xlink:href="#DejaVuSans-32" transform="translate(89.910156 0.78125)"/>
      </g>
     </g>
    </g>
    <g id="text_7">
     <!-- Time [s] -->
     <g transform="translate(207.699531 340.835562) scale(0.14 -0.14)">
      <defs>
       <path id="DejaVuSans-54" d="M -19 4666 
L 3928 4666 
L 3928 4134 
L 2272 4134 
L 2272 0 
L 1638 0 
L 1638 4134 
L -19 4134 
L -19 4666 
z
" transform="scale(0.015625)"/>
       <path id="DejaVuSans-69" d="M 603 3500 
L 1178 3500 
L 1178 0 
L 603 0 
L 603 3500 
z
M 603 4863 
L 1178 4863 
L 1178 4134 
L 603 4134 
L 603 4863 
z
" transform="scale(0.015625)"/>
       <path id="DejaVuSans-6d" d="M 3328 2828 
Q 3544 3216 3844 3400 
Q 4144 3584 4550 3584 
Q 5097 3584 5394 3201 
Q 5691 2819 5691 2113 
L 5691 0 
L 5113 0 
L 5113 2094 
Q 5113 2597 4934 2840 
Q 4756 3084 4391 3084 
Q 3944 3084 3684 2787 
Q 3425 2491 3425 1978 
L 3425 0 
L 2847 0 
L 2847 2094 
Q 2847 2600 2669 2842 
Q 2491 3084 2119 3084 
Q 1678 3084 1418 2786 
Q 1159 2488 1159 1978 
L 1159 0 
L 581 0 
L 581 3500 
L 1159 3500 
L 1159 2956 
Q 1356 3278 1631 3431 
Q 1906 3584 2284 3584 
Q 2666 3584 2933 3390 
Q 3200 3197 3328 2828 
z
" transform="scale(0.015625)"/>
       <path id="DejaVuSans-65" d="M 3597 1894 
L 3597 1613 
L 953 1613 
Q 991 1019 1311 708 
Q 1631 397 2203 397 
Q 2534 397 2845 478 
Q 3156 559 3463 722 
L 3463 178 
Q 3153 47 2828 -22 
Q 2503 -91 2169 -91 
Q 1331 -91 842 396 
Q 353 884 353 1716 
Q 353 2575 817 3079 
Q 1281 3584 2069 3584 
Q 2775 3584 3186 3129 
Q 3597 2675 3597 1894 
z
M 3022 2063 
Q 3016 2534 2758 2815 
Q 2500 3097 2075 3097 
Q 1594 3097 1305 2825 
Q 1016 2553 972 2059 
L 3022 2063 
z
" transform="scale(0.015625)"/>
       <path id="DejaVuSans-20" transform="scale(0.015625)"/>
       <path id="DejaVuSans-5b" d="M 550 4863 
L 1875 4863 
L 1875 4416 
L 1125 4416 
L 1125 -397 
L 1875 -397 
L 1875 -844 
L 550 -844 
L 550 4863 
z
" transform="scale(0.015625)"/>
       <path id="DejaVuSans-73" d="M 2834 3397 
L 2834 2853 
Q 2591 2978 2328 3040 
Q 2066 3103 1784 3103 
Q 1356 3103 1142 2972 
Q 928 2841 928 2578 
Q 928 2378 1081 2264 
Q 1234 2150 1697 2047 
L 1894 2003 
Q 2506 1872 2764 1633 
Q 3022 1394 3022 966 
Q 3022 478 2636 193 
Q 2250 -91 1575 -91 
Q 1294 -91 989 -36 
Q 684 19 347 128 
L 347 722 
Q 666 556 975 473 
Q 1284 391 1588 391 
Q 1994 391 2212 530 
Q 2431 669 2431 922 
Q 2431 1156 2273 1281 
Q 2116 1406 1581 1522 
L 1381 1569 
Q 847 1681 609 1914 
Q 372 2147 372 2553 
Q 372 3047 722 3315 
Q 1072 3584 1716 3584 
Q 2034 3584 2315 3537 
Q 2597 3491 2834 3397 
z
" transform="scale(0.015625)"/>
       <path id="DejaVuSans-5d" d="M 1947 4863 
L 1947 -844 
L 622 -844 
L 622 -397 
L 1369 -397 
L 1369 4416 
L 622 4416 
L 622 4863 
L 1947 4863 
z
" transform="scale(0.015625)"/>
      </defs>
      <use xlink:href="#DejaVuSans-54"/>
      <use xlink:href="#DejaVuSans-69" x="57.958984"/>
      <use xlink:href="#DejaVuSans-6d" x="85.742188"/>
      <use xlink:href="#DejaVuSans-65" x="183.154297"/>
      <use xlink:href="#DejaVuSans-20" x="244.677734"/>
      <use xlink:href="#DejaVuSans-5b" x="276.464844"/>
      <use xlink:href="#DejaVuSans-73" x="315.478516"/>
      <use xlink:href="#DejaVuSans-5d" x="367.578125"/>
     </g>
    </g>
   </g>
   <g id="matplotlib.axis_2">
    <g id="ytick_1">
     <g id="line2d_13">
      <path d="M 57.6 277.838454 
L 414.72 277.838454 
" clip-path="url(#p05dcdb24b8)" style="fill: none; stroke: #b0b0b0; stroke-width: 0.4; stroke-linecap: square"/>
     </g>
     <g id="line2d_14">
      <defs>
       <path id="m6e558777d5" d="M 0 0 
L -3.5 0 
" style="stroke: #000000; stroke-width: 0.8"/>
      </defs>
      <g>
       <use xlink:href="#m6e558777d5" x="57.6" y="277.838454" style="stroke: #000000; stroke-width: 0.8"/>
      </g>
     </g>
     <g id="text_8">
      <!-- $\mathdefault{−1.5}$ -->
      <g transform="translate(21.44 282.397516) scale(0.12 -0.12)">
       <defs>
        <path id="DejaVuSans-2212" d="M 678 2272 
L 4684 2272 
L 4684 1741 
L 678 1741 
L 678 2272 
z
" transform="scale(0.015625)"/>
        <path id="DejaVuSans-31" d="M 794 531 
L 1825 531 
L 1825 4091 
L 703 3866 
L 703 4441 
L 1819 4666 
L 2450 4666 
L 2450 531 
L 3481 531 
L 3481 0 
L 794 0 
L 794 531 
z
" transform="scale(0.015625)"/>
        <path id="DejaVuSans-35" d="M 691 4666 
L 3169 4666 
L 3169 4134 
L 1269 4134 
L 1269 2991 
Q 1406 3038 1543 3061 
Q 1681 3084 1819 3084 
Q 2600 3084 3056 2656 
Q 3513 2228 3513 1497 
Q 3513 744 3044 326 
Q 2575 -91 1722 -91 
Q 1428 -91 1123 -41 
Q 819 9 494 109 
L 494 744 
Q 775 591 1075 516 
Q 1375 441 1709 441 
Q 2250 441 2565 725 
Q 2881 1009 2881 1497 
Q 2881 1984 2565 2268 
Q 2250 2553 1709 2553 
Q 1456 2553 1204 2497 
Q 953 2441 691 2322 
L 691 4666 
z
" transform="scale(0.015625)"/>
       </defs>
       <use xlink:href="#DejaVuSans-2212" transform="translate(0 0.09375)"/>
       <use xlink:href="#DejaVuSans-31" transform="translate(83.789062 0.09375)"/>
       <use xlink:href="#DejaVuSans-2e" transform="translate(147.412109 0.09375)"/>
       <use xlink:href="#DejaVuSans-35" transform="translate(179.199219 0.09375)"/>
      </g>
     </g>
    </g>
    <g id="ytick_2">
     <g id="line2d_15">
      <path d="M 57.6 243.867371 
L 414.72 243.867371 
" clip-path="url(#p05dcdb24b8)" style="fill: none; stroke: #b0b0b0; stroke-width: 0.4; stroke-linecap: square"/>
     </g>
     <g id="line2d_16">
      <g>
       <use xlink:href="#m6e558777d5" x="57.6" y="243.867371" style="stroke: #000000; stroke-width: 0.8"/>
      </g>
     </g>
     <g id="text_9">
      <!-- $\mathdefault{−1.0}$ -->
      <g transform="translate(21.44 248.426433) scale(0.12 -0.12)">
       <use xlink:href="#DejaVuSans-2212" transform="translate(0 0.78125)"/>
       <use xlink:href="#DejaVuSans-31" transform="translate(83.789062 0.78125)"/>
       <use xlink:href="#DejaVuSans-2e" transform="translate(147.412109 0.78125)"/>
       <use xlink:href="#DejaVuSans-30" transform="translate(179.199219 0.78125)"/>
      </g>
     </g>
    </g>
    <g id="ytick_3">
     <g id="line2d_17">
      <path d="M 57.6 209.896288 
L 414.72 209.896288 
" clip-path="url(#p05dcdb24b8)" style="fill: none; stroke: #b0b0b0; stroke-width: 0.4; stroke-linecap: square"/>
     </g>
     <g id="line2d_18">
      <g>
       <use xlink:href="#m6e558777d5" x="57.6" y="209.896288" style="stroke: #000000; stroke-width: 0.8"/>
      </g>
     </g>
     <g id="text_10">
      <!-- $\mathdefault{−0.5}$ -->
      <g transform="translate(21.44 214.45535) scale(0.12 -0.12)">
       <use xlink:href="#DejaVuSans-2212" transform="translate(0 0.78125)"/>
       <use xlink:href="#DejaVuSans-30" transform="translate(83.789062 0.78125)"/>
       <use xlink:href="#DejaVuSans-2e" transform="translate(147.412109 0.78125)"/>
       <use xlink:href="#DejaVuSans-35" transform="translate(179.199219 0.78125)"/>
      </g>
     </g>
    </g>
    <g id="ytick_4">
     <g id="line2d_19">
      <path d="M 57.6 175.925205 
L 414.72 175.925205 
" clip-path="url(#p05dcdb24b8)" style="fill: none; stroke: #b0b0b0; stroke-width: 0.4; stroke-linecap: square"/>
     </g>
     <g id="line2d_20">
      <g>
       <use xlink:href="#m6e558777d5" x="57.6" y="175.925205" style="stroke: #000000; stroke-width: 0.8"/>
      </g>
     </g>
     <g id="text_11">
      <!-- $\mathdefault{0.0}$ -->
      <g transform="translate(31.4 180.484267) scale(0.12 -0.12)">
       <use xlink:href="#DejaVuSans-30" transform="translate(0 0.78125)"/>
       <use xlink:href="#DejaVuSans-2e" transform="translate(63.623047 0.78125)"/>
       <use xlink:href="#DejaVuSans-30" transform="translate(95.410156 0.78125)"/>
      </g>
     </g>
    </g>
    <g id="ytick_5">
     <g id="line2d_21">
      <path d="M 57.6 141.954122 
L 414.72 141.954122 
" clip-path="url(#p05dcdb24b8)" style="fill: none; stroke: #b0b0b0; stroke-width: 0.4; stroke-linecap: square"/>
     </g>
     <g id="line2d_22">
      <g>
       <use xlink:href="#m6e558777d5" x="57.6" y="141.954122" style="stroke: #000000; stroke-width: 0.8"/>
      </g>
     </g>
     <g id="text_12">
      <!-- $\mathdefault{0.5}$ -->
      <g transform="translate(31.4 146.513184) scale(0.12 -0.12)">
       <use xlink:href="#DejaVuSans-30" transform="translate(0 0.78125)"/>
       <use xlink:href="#DejaVuSans-2e" transform="translate(63.623047 0.78125)"/>
       <use xlink:href="#DejaVuSans-35" transform="translate(95.410156 0.78125)"/>
      </g>
     </g>
    </g>
    <g id="ytick_6">
     <g id="line2d_23">
      <path d="M 57.6 107.983039 
L 414.72 107.983039 
" clip-path="url(#p05dcdb24b8)" style="fill: none; stroke: #b0b0b0; stroke-width: 0.4; stroke-linecap: square"/>
     </g>
     <g id="line2d_24">
      <g>
       <use xlink:href="#m6e558777d5" x="57.6" y="107.983039" style="stroke: #000000; stroke-width: 0.8"/>
      </g>
     </g>
     <g id="text_13">
      <!-- $\mathdefault{1.0}$ -->
      <g transform="translate(31.4 112.542101) scale(0.12 -0.12)">
       <use xlink:href="#DejaVuSans-31" transform="translate(0 0.78125)"/>
       <use xlink:href="#DejaVuSans-2e" transform="translate(63.623047 0.78125)"/>
       <use xlink:href="#DejaVuSans-30" transform="translate(95.410156 0.78125)"/>
      </g>
     </g>
    </g>
    <g id="ytick_7">
     <g id="line2d_25">
      <path d="M 57.6 74.011956 
L 414.72 74.011956 
" clip-path="url(#p05dcdb24b8)" style="fill: none; stroke: #b0b0b0; stroke-width: 0.4; stroke-linecap: square"/>
     </g>
     <g id="line2d_26">
      <g>
       <use xlink:href="#m6e558777d5" x="57.6" y="74.011956" style="stroke: #000000; stroke-width: 0.8"/>
      </g>
     </g>
     <g id="text_14">
      <!-- $\mathdefault{1.5}$ -->
      <g transform="translate(31.4 78.571018) scale(0.12 -0.12)">
       <use xlink:href="#DejaVuSans-31" transform="translate(0 0.09375)"/>
       <use xlink:href="#DejaVuSans-2e" transform="translate(63.623047 0.09375)"/>
       <use xlink:href="#DejaVuSans-35" transform="translate(95.410156 0.09375)"/>
      </g>
     </g>
    </g>
    <g id="text_15">
     <!-- Strain -->
     <g transform="translate(14.528437 195.264406) rotate(-90) scale(0.14 -0.14)">
      <defs>
       <path id="DejaVuSans-53" d="M 3425 4513 
L 3425 3897 
Q 3066 4069 2747 4153 
Q 2428 4238 2131 4238 
Q 1616 4238 1336 4038 
Q 1056 3838 1056 3469 
Q 1056 3159 1242 3001 
Q 1428 2844 1947 2747 
L 2328 2669 
Q 3034 2534 3370 2195 
Q 3706 1856 3706 1288 
Q 3706 609 3251 259 
Q 2797 -91 1919 -91 
Q 1588 -91 1214 -16 
Q 841 59 441 206 
L 441 856 
Q 825 641 1194 531 
Q 1563 422 1919 422 
Q 2459 422 2753 634 
Q 3047 847 3047 1241 
Q 3047 1584 2836 1778 
Q 2625 1972 2144 2069 
L 1759 2144 
Q 1053 2284 737 2584 
Q 422 2884 422 3419 
Q 422 4038 858 4394 
Q 1294 4750 2059 4750 
Q 2388 4750 2728 4690 
Q 3069 4631 3425 4513 
z
" transform="scale(0.015625)"/>
       <path id="DejaVuSans-74" d="M 1172 4494 
L 1172 3500 
L 2356 3500 
L 2356 3053 
L 1172 3053 
L 1172 1153 
Q 1172 725 1289 603 
Q 1406 481 1766 481 
L 2356 481 
L 2356 0 
L 1766 0 
Q 1100 0 847 248 
Q 594 497 594 1153 
L 594 3053 
L 172 3053 
L 172 3500 
L 594 3500 
L 594 4494 
L 1172 4494 
z
" transform="scale(0.015625)"/>
       <path id="DejaVuSans-72" d="M 2631 2963 
Q 2534 3019 2420 3045 
Q 2306 3072 2169 3072 
Q 1681 3072 1420 2755 
Q 1159 2438 1159 1844 
L 1159 0 
L 581 0 
L 581 3500 
L 1159 3500 
L 1159 2956 
Q 1341 3275 1631 3429 
Q 1922 3584 2338 3584 
Q 2397 3584 2469 3576 
Q 2541 3569 2628 3553 
L 2631 2963 
z
" transform="scale(0.015625)"/>
       <path id="DejaVuSans-61" d="M 2194 1759 
Q 1497 1759 1228 1600 
Q 959 1441 959 1056 
Q 959 750 1161 570 
Q 1363 391 1709 391 
Q 2188 391 2477 730 
Q 2766 1069 2766 1631 
L 2766 1759 
L 2194 1759 
z
M 3341 1997 
L 3341 0 
L 2766 0 
L 2766 531 
Q 2569 213 2275 61 
Q 1981 -91 1556 -91 
Q 1019 -91 701 211 
Q 384 513 384 1019 
Q 384 1609 779 1909 
Q 1175 2209 1959 2209 
L 2766 2209 
L 2766 2266 
Q 2766 2663 2505 2880 
Q 2244 3097 1772 3097 
Q 1472 3097 1187 3025 
Q 903 2953 641 2809 
L 641 3341 
Q 956 3463 1253 3523 
Q 1550 3584 1831 3584 
Q 2591 3584 2966 3190 
Q 3341 2797 3341 1997 
z
" transform="scale(0.015625)"/>
       <path id="DejaVuSans-6e" d="M 3513 2113 
L 3513 0 
L 2938 0 
L 2938 2094 
Q 2938 2591 2744 2837 
Q 2550 3084 2163 3084 
Q 1697 3084 1428 2787 
Q 1159 2491 1159 1978 
L 1159 0 
L 581 0 
L 581 3500 
L 1159 3500 
L 1159 2956 
Q 1366 3272 1645 3428 
Q 1925 3584 2291 3584 
Q 2894 3584 3203 3211 
Q 3513 2838 3513 2113 
z
" transform="scale(0.015625)"/>
      </defs>
      <use xlink:href="#DejaVuSans-53"/>
      <use xlink:href="#DejaVuSans-74" x="63.476562"/>
      <use xlink:href="#DejaVuSans-72" x="102.685547"/>
      <use xlink:href="#DejaVuSans-61" x="143.798828"/>
      <use xlink:href="#DejaVuSans-69" x="205.078125"/>
      <use xlink:href="#DejaVuSans-6e" x="232.861328"/>
     </g>
    </g>
    <g id="text_16">
     <!-- $\times\mathdefault{10^{−21}}\mathdefault{}$ -->
     <g transform="translate(57.6 38.472) scale(0.12 -0.12)">
      <defs>
       <path id="DejaVuSans-d7" d="M 4488 3438 
L 3059 2003 
L 4488 575 
L 4116 197 
L 2681 1631 
L 1247 197 
L 878 575 
L 2303 2003 
L 878 3438 
L 1247 3816 
L 2681 2381 
L 4116 3816 
L 4488 3438 
z
" transform="scale(0.015625)"/>
      </defs>
      <use xlink:href="#DejaVuSans-d7" transform="translate(0 0.765625)"/>
      <use xlink:href="#DejaVuSans-31" transform="translate(83.789062 0.765625)"/>
      <use xlink:href="#DejaVuSans-30" transform="translate(147.412109 0.765625)"/>
      <use xlink:href="#DejaVuSans-2212" transform="translate(211.992188 39.046875) scale(0.7)"/>
      <use xlink:href="#DejaVuSans-32" transform="translate(270.644531 39.046875) scale(0.7)"/>
      <use xlink:href="#DejaVuSans-31" transform="translate(315.180664 39.046875) scale(0.7)"/>
     </g>
    </g>
   </g>
   <g id="line2d_27">
    <path d="M 57.219545 156.706874 
L 59.121818 144.343454 
L 60.39 137.486729 
L 61.658182 132.079104 
L 62.292273 129.993487 
L 62.926364 128.352024 
L 63.560455 127.173315 
L 64.194545 126.471386 
L 64.828636 126.255543 
L 65.462727 126.530261 
L 66.096818 127.295075 
L 66.730909 128.544532 
L 67.365 130.268214 
L 67.999091 132.450848 
L 69.267273 138.108552 
L 70.535455 145.304739 
L 71.803636 153.761573 
L 73.705909 168.073014 
L 77.510455 197.739858 
L 78.778636 206.464703 
L 80.046818 213.983271 
L 81.315 219.982453 
L 81.949091 222.330746 
L 82.583182 224.209935 
L 83.217273 225.599738 
L 83.851364 226.484913 
L 84.485455 226.855466 
L 85.119545 226.706784 
L 85.753636 226.039679 
L 86.387727 224.860388 
L 87.021818 223.180529 
L 87.655909 221.017039 
L 88.924091 215.332622 
L 90.192273 208.041901 
L 91.460455 199.448846 
L 93.362727 184.91975 
L 97.167273 155.1414 
L 98.435455 146.566866 
L 99.703636 139.317709 
L 100.971818 133.710095 
L 101.605909 131.601796 
L 102.24 129.989879 
L 102.874091 128.892158 
L 103.508182 128.320821 
L 104.142273 128.282282 
L 104.776364 128.777071 
L 105.410455 129.799768 
L 106.044545 131.339011 
L 106.678636 133.377606 
L 107.946818 138.856104 
L 109.215 145.989535 
L 110.483182 154.456014 
L 112.385455 168.801724 
L 115.555909 193.401101 
L 116.824091 202.152085 
L 118.092273 209.644607 
L 119.360455 215.52186 
L 119.994545 217.762612 
L 120.628636 219.499303 
L 121.262727 220.709921 
L 121.896818 221.378493 
L 122.530909 221.495334 
L 123.165 221.057228 
L 123.799091 220.0675 
L 124.433182 218.535993 
L 125.067273 216.478969 
L 125.701364 213.918945 
L 126.969545 207.409955 
L 128.237727 199.304832 
L 130.14 184.992436 
L 134.578636 149.714435 
L 135.846818 141.353909 
L 137.115 134.57658 
L 137.749091 131.893886 
L 138.383182 129.731169 
L 139.017273 128.117998 
L 139.651364 127.077514 
L 140.285455 126.626072 
L 140.919545 126.772972 
L 141.553636 127.5203 
L 142.187727 128.862875 
L 142.821818 130.788269 
L 143.455909 133.27689 
L 144.724091 139.830663 
L 145.992273 148.232598 
L 147.260455 158.096805 
L 149.796818 180.307258 
L 152.333182 202.248174 
L 153.601364 211.761047 
L 154.869545 219.646371 
L 156.137727 225.499508 
L 156.771818 227.563197 
L 157.405909 229.01138 
L 158.04 229.823151 
L 158.674091 229.985459 
L 159.308182 229.493326 
L 159.942273 228.349942 
L 160.576364 226.566652 
L 161.210455 224.162889 
L 161.844545 221.166009 
L 163.112727 213.540146 
L 164.380909 204.052896 
L 166.283182 187.363652 
L 170.087727 152.175994 
L 171.355909 142.094435 
L 172.624091 133.749157 
L 173.892273 127.576603 
L 174.526364 125.412156 
L 175.160455 123.903904 
L 175.794545 123.072523 
L 176.428636 122.929823 
L 177.062727 123.478555 
L 177.696818 124.712348 
L 178.330909 126.615733 
L 178.965 129.164264 
L 179.599091 132.324742 
L 180.867273 140.307288 
L 182.135455 150.140009 
L 184.037727 167.183753 
L 187.208182 196.478391 
L 188.476364 206.61888 
L 189.744545 214.968747 
L 190.378636 218.318737 
L 191.012727 221.051303 
L 191.646818 223.126161 
L 192.280909 224.512048 
L 192.915 225.187263 
L 193.549091 225.140066 
L 194.183182 224.368924 
L 194.817273 222.882594 
L 195.451364 220.700068 
L 196.085455 217.850411 
L 197.353636 210.314332 
L 198.621818 200.692867 
L 200.524091 183.568133 
L 204.328636 148.014109 
L 205.596818 138.36323 
L 206.865 130.867453 
L 207.499091 128.082569 
L 208.133182 126.004652 
L 208.767273 124.67 
L 209.401364 124.104197 
L 210.035455 124.321608 
L 210.669545 125.325 
L 211.303636 127.105353 
L 211.937727 129.641886 
L 212.571818 132.902292 
L 213.84 141.410441 
L 215.108182 152.159657 
L 217.010455 171.112116 
L 220.180909 203.908806 
L 221.449091 215.123049 
L 222.717273 224.148998 
L 223.351364 227.653003 
L 223.985455 230.402708 
L 224.619545 232.350577 
L 225.253636 233.461119 
L 225.887727 233.711552 
L 226.521818 233.092288 
L 227.155909 231.607228 
L 227.79 229.273865 
L 228.424091 226.123162 
L 229.058182 222.199195 
L 230.326364 212.269525 
L 231.594545 200.072063 
L 233.496818 179.17403 
L 236.033182 151.052376 
L 237.301364 138.902136 
L 238.569545 129.113566 
L 239.203636 125.315179 
L 239.837727 122.337507 
L 240.471818 120.232161 
L 241.105909 119.036712 
L 241.74 118.773856 
L 242.374091 119.450827 
L 243.008182 121.059124 
L 243.642273 123.574541 
L 244.276364 126.957464 
L 244.910455 131.153386 
L 246.178636 141.696412 
L 247.446818 154.503986 
L 252.519545 209.815067 
L 253.787727 219.766555 
L 254.421818 223.570779 
L 255.055909 226.492349 
L 255.69 228.473634 
L 256.324091 229.473433 
L 256.958182 229.467917 
L 257.592273 228.451268 
L 258.226364 226.436012 
L 258.860455 223.453041 
L 259.494545 219.551279 
L 260.762727 209.272762 
L 262.030909 196.317956 
L 263.933182 173.944525 
L 266.469545 144.473996 
L 267.737727 132.444206 
L 268.371818 127.552616 
L 269.005909 123.550111 
L 269.64 120.522648 
L 270.274091 118.538568 
L 270.908182 117.647067 
L 271.542273 117.876963 
L 272.176364 119.235779 
L 272.810455 121.709176 
L 273.444545 125.260833 
L 274.078636 129.832842 
L 275.346818 141.704223 
L 276.615 156.472835 
L 281.687727 220.56036 
L 282.955909 231.403884 
L 283.59 235.28342 
L 284.224091 238.011088 
L 284.858182 239.521654 
L 285.492273 239.773959 
L 286.126364 238.752215 
L 286.760455 236.466883 
L 287.394545 232.955009 
L 288.028636 228.27996 
L 289.296818 215.819432 
L 290.565 200.070086 
L 295.003636 139.174308 
L 296.271818 126.391495 
L 296.905909 121.617756 
L 297.54 118.084422 
L 298.174091 115.880258 
L 298.808182 115.064869 
L 299.442273 115.666916 
L 300.076364 117.682982 
L 300.710455 121.077094 
L 301.344545 125.780923 
L 301.978636 131.694678 
L 303.246818 146.605811 
L 305.149091 173.979217 
L 307.051364 202.13326 
L 308.319545 218.252513 
L 308.953636 224.869551 
L 309.587727 230.278585 
L 310.221818 234.327325 
L 310.855909 236.894835 
L 311.49 237.895381 
L 312.124091 237.281538 
L 312.758182 235.046394 
L 313.392273 231.224718 
L 314.026364 225.892987 
L 314.660455 219.168216 
L 315.928636 202.195265 
L 317.830909 171.208306 
L 319.733182 139.965136 
L 321.001364 122.749719 
L 321.635455 116.001571 
L 322.269545 110.777451 
L 322.903636 107.244199 
L 323.537727 105.524695 
L 324.171818 105.693536 
L 324.805909 107.774004 
L 325.44 111.736318 
L 326.074091 117.497089 
L 326.708182 124.919965 
L 327.976364 143.955369 
L 329.878636 178.876544 
L 331.780909 213.395819 
L 333.049091 231.520528 
L 333.683182 238.18392 
L 334.317273 242.921919 
L 334.951364 245.555638 
L 335.585455 245.968058 
L 336.219545 244.110386 
L 336.853636 240.006737 
L 337.487727 233.756542 
L 338.121818 225.534082 
L 339.39 204.219493 
L 343.194545 129.228564 
L 343.828636 119.797235 
L 344.462727 112.370082 
L 345.096818 107.271327 
L 345.730909 104.750142 
L 346.365 104.9672 
L 346.999091 107.983836 
L 347.633182 113.754941 
L 348.267273 122.126393 
L 348.901364 132.837169 
L 350.169545 159.739859 
L 353.34 233.448588 
L 353.974091 244.296434 
L 354.608182 252.461004 
L 355.242273 257.490717 
L 355.876364 259.057435 
L 356.510455 256.980283 
L 357.144545 251.242644 
L 357.778636 242.000602 
L 358.412727 229.582588 
L 359.680909 197.338799 
L 362.217273 125.154563 
L 362.851364 110.929505 
L 363.485455 100.080769 
L 364.119545 93.353686 
L 364.753636 91.296075 
L 365.387727 94.209899 
L 366.021818 102.118884 
L 366.655909 114.752632 
L 367.29 131.544147 
L 368.558182 173.907182 
L 370.460455 239.337405 
L 371.094545 255.346708 
L 371.728636 265.901767 
L 372.362727 269.81425 
L 372.996818 266.309713 
L 373.630909 255.138557 
L 374.265 236.657114 
L 374.899091 211.875258 
L 377.435455 92.698621 
L 378.069545 73.114349 
L 378.703636 64.161195 
L 379.337727 68.177808 
L 379.971818 86.150374 
L 380.605909 117.256068 
L 381.874091 204.791294 
L 382.508182 248.756511 
L 383.142273 281.833545 
L 383.776364 295.488 
L 384.410455 283.475861 
L 385.044545 244.64053 
L 386.946818 70.359861 
L 387.580909 53.568 
L 388.215 78.381444 
L 390.117273 247.001614 
L 390.751364 255.446494 
L 391.385455 228.6164 
L 392.653636 143.024471 
L 393.287727 122.981473 
L 393.921818 128.892561 
L 394.555909 153.880058 
L 395.19 183.247941 
L 395.824091 202.252975 
L 396.458182 203.584686 
L 397.092273 190.246665 
L 397.726364 172.280085 
L 398.360455 159.949993 
L 398.994545 158.116841 
L 399.628636 164.976949 
L 400.262727 174.858722 
L 400.896818 182.290307 
L 401.530909 184.634639 
L 402.165 182.389516 
L 403.433182 173.88343 
L 404.067273 172.060695 
L 404.701364 172.888124 
L 405.969545 178.487923 
L 406.603636 180.345198 
L 407.237727 180.509257 
L 407.871818 179.351931 
L 408.505909 177.838996 
L 409.14 176.893266 
L 409.774091 176.917651 
L 410.408182 177.719974 
L 411.042273 178.778264 
L 411.676364 179.597923 
L 412.310455 179.938275 
L 412.944545 179.839267 
L 414.212727 179.201884 
L 414.846818 179.073706 
L 414.846818 179.073706 
" clip-path="url(#p05dcdb24b8)" style="fill: none; stroke: #1f77b4; stroke-width: 1.5; stroke-linecap: square"/>
   </g>
   <g id="line2d_28">
    <path d="M 57.536591 195.249277 
L 58.170682 196.641492 
L 58.64625 197.307113 
L 59.121818 197.635584 
L 59.438864 197.664211 
L 59.914432 197.420606 
L 60.39 196.836264 
L 61.024091 195.542443 
L 61.658182 193.692674 
L 62.450795 190.675922 
L 63.560454 185.375326 
L 65.145682 176.459246 
L 67.365 164.021082 
L 68.474659 159.007201 
L 69.267273 156.269992 
L 69.901364 154.68583 
L 70.535454 153.69188 
L 71.011023 153.352777 
L 71.328068 153.324326 
L 71.645114 153.454768 
L 72.120682 153.946787 
L 72.59625 154.788047 
L 73.230341 156.430992 
L 74.022954 159.257735 
L 74.974091 163.619903 
L 76.242273 170.625309 
L 79.729773 190.592772 
L 80.680909 194.582116 
L 81.473523 197.015318 
L 82.107614 198.295417 
L 82.583182 198.840156 
L 83.05875 199.017851 
L 83.375795 198.930411 
L 83.851364 198.491487 
L 84.326932 197.689502 
L 84.961023 196.07782 
L 85.753636 193.258449 
L 86.704773 188.865667 
L 87.972954 181.774503 
L 91.301932 162.380041 
L 92.253068 158.244108 
L 93.045682 155.700799 
L 93.679773 154.347208 
L 94.155341 153.758334 
L 94.630909 153.547249 
L 94.947954 153.618797 
L 95.423523 154.043778 
L 95.899091 154.843802 
L 96.533182 156.471007 
L 97.325795 159.336402 
L 98.276932 163.815546 
L 99.545114 171.050445 
L 102.715568 189.887142 
L 103.666704 194.157107 
L 104.459318 196.790181 
L 105.093409 198.193978 
L 105.568977 198.805248 
L 106.044545 199.02423 
L 106.361591 198.949463 
L 106.837159 198.506595 
L 107.312727 197.67293 
L 107.946818 195.976962 
L 108.739432 192.99017 
L 109.690568 188.32233 
L 110.95875 180.790394 
L 114.129204 161.293247 
L 115.080341 156.929992 
L 115.872954 154.274303 
L 116.507045 152.890373 
L 116.982614 152.315894 
L 117.299659 152.160384 
L 117.616704 152.188802 
L 117.93375 152.40119 
L 118.409318 153.061234 
L 118.884886 154.120882 
L 119.518977 156.123334 
L 120.311591 159.484064 
L 121.262727 164.554297 
L 122.689432 173.516359 
L 125.067273 188.482352 
L 126.018409 193.216937 
L 126.811023 196.205279 
L 127.445114 197.855251 
L 127.920682 198.622505 
L 128.39625 198.969456 
L 128.713295 198.963337 
L 129.030341 198.766782 
L 129.505909 198.118182 
L 129.981477 197.055364 
L 130.615568 195.027129 
L 131.408182 191.603779 
L 132.359318 186.425687 
L 133.786023 177.278386 
L 136.005341 163.032105 
L 136.956477 158.149215 
L 137.749091 155.060973 
L 138.383182 153.355789 
L 138.85875 152.564939 
L 139.334318 152.211434 
L 139.651364 152.223187 
L 139.968409 152.433594 
L 140.443977 153.118479 
L 140.919545 154.235894 
L 141.553636 156.363849 
L 142.34625 159.94987 
L 143.297386 165.364904 
L 144.882614 176.009205 
L 146.943409 189.640595 
L 147.894545 194.623958 
L 148.687159 197.727322 
L 149.32125 199.397031 
L 149.796818 200.133799 
L 150.113864 200.370157 
L 150.430909 200.399623 
L 150.747954 200.221584 
L 151.223523 199.568513 
L 151.699091 198.46311 
L 152.333182 196.321993 
L 153.125795 192.678232 
L 154.076932 187.14832 
L 155.662159 176.269452 
L 157.564432 163.391593 
L 158.515568 158.217835 
L 159.308182 154.978161 
L 159.942273 153.224133 
L 160.417841 152.442122 
L 160.734886 152.185064 
L 161.051932 152.14282 
L 161.368977 152.31615 
L 161.844545 152.977267 
L 162.320114 154.108331 
L 162.954204 156.308911 
L 163.746818 160.060688 
L 164.697954 165.752015 
L 166.283182 176.900251 
L 168.185454 189.91847 
L 169.136591 195.02338 
L 169.929204 198.118927 
L 170.563295 199.69952 
L 171.038864 200.31891 
L 171.355909 200.45309 
L 171.672954 200.361787 
L 171.99 200.045209 
L 172.465568 199.153539 
L 172.941136 197.777038 
L 173.575227 195.234809 
L 174.367841 191.05176 
L 175.4775 183.753615 
L 179.123523 158.137667 
L 179.916136 154.378652 
L 180.550227 152.254319 
L 181.025795 151.233322 
L 181.501364 150.729544 
L 181.818409 150.687561 
L 182.135454 150.882013 
L 182.4525 151.311514 
L 182.928068 152.387907 
L 183.562159 154.593413 
L 184.354773 158.468934 
L 185.305909 164.453422 
L 186.891136 176.293641 
L 188.634886 189.054463 
L 189.586023 194.59789 
L 190.378636 197.968857 
L 191.012727 199.690118 
L 191.488295 200.362189 
L 191.805341 200.505222 
L 192.122386 200.4016 
L 192.439432 200.051779 
L 192.915 199.072494 
L 193.390568 197.566519 
L 194.024659 194.795912 
L 194.817273 190.262329 
L 195.926932 182.428556 
L 199.097386 158.86567 
L 199.89 154.700818 
L 200.524091 152.305606 
L 200.999659 151.125756 
L 201.475227 150.508456 
L 201.792273 150.418317 
L 202.109318 150.587615 
L 202.426364 151.015428 
L 202.901932 152.133488 
L 203.536023 154.474013 
L 204.328636 158.632083 
L 205.279773 165.080606 
L 206.865 177.79734 
L 208.450227 190.154583 
L 209.401364 196.052384 
L 210.193977 199.575112 
L 210.828068 201.30386 
L 211.303636 201.911295 
L 211.620682 201.977429 
L 211.937727 201.770433 
L 212.254773 201.292174 
L 212.730341 200.076869 
L 213.364432 197.571577 
L 214.157045 193.170476 
L 215.108182 186.414496 
L 217.010454 170.651607 
L 218.278636 160.914716 
L 219.229773 155.249104 
L 219.863864 152.581952 
L 220.339432 151.256592 
L 220.815 150.550363 
L 221.132045 150.433878 
L 221.449091 150.603862 
L 221.766136 151.059362 
L 222.241704 152.267618 
L 222.875795 154.811643 
L 223.668409 159.333278 
L 224.619545 166.312837 
L 226.521818 182.595701 
L 227.79 192.551537 
L 228.582614 197.423188 
L 229.216704 200.269229 
L 229.692273 201.697178 
L 230.167841 202.473914 
L 230.484886 202.617617 
L 230.801932 202.458313 
L 231.118977 201.996826 
L 231.594545 200.748326 
L 232.070114 198.859043 
L 232.704204 195.424485 
L 233.496818 189.880798 
L 234.765 179.075797 
L 236.984318 159.910982 
L 237.935454 153.839825 
L 238.569545 151.043398 
L 239.045114 149.707503 
L 239.362159 149.202448 
L 239.679204 149.014416 
L 239.99625 149.146486 
L 240.313295 149.59788 
L 240.788864 150.862715 
L 241.264432 152.80366 
L 241.898523 156.354327 
L 242.691136 162.098476 
L 243.959318 173.262498 
L 246.020114 191.515386 
L 246.812727 196.877219 
L 247.446818 200.014585 
L 247.922386 201.583905 
L 248.397954 202.426827 
L 248.715 202.570645 
L 249.032045 202.375828 
L 249.349091 201.843616 
L 249.824659 200.425684 
L 250.45875 197.439792 
L 251.251364 192.15665 
L 252.2025 184.087474 
L 255.372954 155.541765 
L 256.165568 150.991821 
L 256.641136 149.181675 
L 257.116704 148.135152 
L 257.43375 147.880002 
L 257.750795 147.985082 
L 258.067841 148.450392 
L 258.543409 149.812182 
L 259.018977 151.937344 
L 259.653068 155.85428 
L 260.445682 162.203911 
L 261.713864 174.473446 
L 263.457614 191.334514 
L 264.40875 198.346103 
L 265.042841 201.558472 
L 265.518409 203.061481 
L 265.835454 203.601867 
L 266.1525 203.762148 
L 266.469545 203.538798 
L 266.786591 202.933558 
L 267.262159 201.326537 
L 267.89625 197.956319 
L 268.688864 192.032321 
L 269.798523 181.475012 
L 272.176364 157.955247 
L 272.968977 152.354047 
L 273.603068 149.350523 
L 274.078636 148.08715 
L 274.395682 147.744639 
L 274.712727 147.810695 
L 275.029773 148.286264 
L 275.346818 149.166429 
L 275.822386 151.220056 
L 276.456477 155.225082 
L 277.249091 161.945012 
L 278.517273 175.199949 
L 280.261023 193.388715 
L 281.053636 199.671138 
L 281.687727 203.180916 
L 282.163295 204.775528 
L 282.480341 205.308238 
L 282.797386 205.404147 
L 283.114432 205.059857 
L 283.431477 204.278656 
L 283.907045 202.311337 
L 284.541136 198.30678 
L 285.33375 191.421932 
L 286.443409 179.464739 
L 288.345682 158.723875 
L 289.138295 152.300127 
L 289.772386 148.819687 
L 290.247954 147.33919 
L 290.565 146.926734 
L 290.723523 146.896858 
L 291.040568 147.191804 
L 291.357614 147.956776 
L 291.833182 149.961322 
L 292.467273 154.1224 
L 293.259886 161.340111 
L 294.369545 173.889126 
L 296.113295 193.78304 
L 296.905909 200.581469 
L 297.54 204.245609 
L 298.015568 205.775262 
L 298.332614 206.173523 
L 298.491136 206.181739 
L 298.808182 205.814289 
L 299.125227 204.938667 
L 299.600795 202.701017 
L 300.234886 198.121807 
L 301.0275 190.26588 
L 302.295682 174.777952 
L 303.722386 157.726851 
L 304.515 150.577476 
L 305.149091 146.803607 
L 305.624659 145.308047 
L 305.941704 144.989847 
L 306.100227 145.038596 
L 306.417273 145.552535 
L 306.734318 146.615339 
L 307.209886 149.200154 
L 307.843977 154.3338 
L 308.636591 162.939906 
L 310.380341 185.618019 
L 311.331477 196.600499 
L 311.965568 202.101524 
L 312.441136 204.943421 
L 312.916704 206.53186 
L 313.23375 206.851958 
L 313.392273 206.785447 
L 313.709318 206.19834 
L 314.026364 205.013091 
L 314.501932 202.158429 
L 315.136023 196.530601 
L 315.928636 187.174849 
L 318.782045 150.422398 
L 319.416136 145.725729 
L 319.891704 143.757063 
L 320.20875 143.249216 
L 320.367273 143.243617 
L 320.525795 143.404686 
L 320.842841 144.225024 
L 321.159886 145.698012 
L 321.635454 149.070853 
L 322.269545 155.500107 
L 323.220682 168.18953 
L 325.281477 197.363134 
L 325.915568 203.627658 
L 326.391136 206.768007 
L 326.708182 208.018168 
L 327.025227 208.552982 
L 327.18375 208.546017 
L 327.342273 208.354874 
L 327.659318 207.422473 
L 328.134886 204.685074 
L 328.610454 200.454424 
L 329.244545 192.843743 
L 330.354204 176.079251 
L 331.780909 154.685055 
L 332.415 147.683209 
L 332.890568 144.111507 
L 333.366136 142.223603 
L 333.524659 141.993004 
L 333.683182 141.966701 
L 333.841704 142.145857 
L 334.15875 143.119019 
L 334.475795 144.896948 
L 334.951364 148.989812 
L 335.585454 156.771445 
L 336.536591 171.875823 
L 338.121818 197.825187 
L 338.755909 205.378694 
L 339.231477 209.143963 
L 339.548523 210.603804 
L 339.865568 211.165444 
L 340.024091 211.101081 
L 340.341136 210.278575 
L 340.658182 208.544463 
L 341.13375 204.322206 
L 341.767841 196.045487 
L 342.718977 179.762898 
L 344.304204 152.240034 
L 344.938295 144.734018 
L 345.413864 141.377389 
L 345.730909 140.374654 
L 345.889432 140.261937 
L 346.047954 140.412224 
L 346.365 141.502302 
L 346.682045 143.626557 
L 347.157614 148.635415 
L 347.791704 158.220804 
L 348.901364 179.755147 
L 350.011023 200.589501 
L 350.645114 209.056572 
L 351.120682 212.819542 
L 351.437727 213.903521 
L 351.59625 213.995209 
L 351.754773 213.781939 
L 352.071818 212.441017 
L 352.388864 209.906958 
L 352.864432 204.024936 
L 353.498523 192.94494 
L 356.034886 142.793129 
L 356.510454 138.502315 
L 356.8275 137.310224 
L 356.986023 137.244562 
L 357.144545 137.538543 
L 357.461591 139.20372 
L 357.778636 142.268405 
L 358.254204 149.275905 
L 358.888295 162.246489 
L 360.949091 208.871646 
L 361.424659 214.753679 
L 361.741704 216.758708 
L 361.900227 217.136289 
L 362.05875 217.084404 
L 362.217273 216.598938 
L 362.534318 214.334046 
L 363.009886 207.851602 
L 363.643977 194.348567 
L 365.863295 138.945473 
L 366.338864 133.791309 
L 366.655909 132.83849 
L 366.814432 133.153138 
L 367.131477 135.380536 
L 367.448523 139.683036 
L 367.924091 149.643052 
L 368.716704 172.852622 
L 369.984886 210.38653 
L 370.460454 218.733423 
L 370.7775 221.349208 
L 370.936023 221.668734 
L 371.094545 221.304043 
L 371.411591 218.505779 
L 371.728636 213.025614 
L 372.204204 200.341095 
L 372.996818 171.405396 
L 373.947954 137.948921 
L 374.423523 128.132171 
L 374.740568 125.654479 
L 374.899091 125.789016 
L 375.057614 126.875433 
L 375.374659 131.915006 
L 375.850227 146.180992 
L 376.484318 174.263253 
L 377.435454 217.07029 
L 377.911023 228.919123 
L 378.069545 230.459073 
L 378.228068 230.625264 
L 378.386591 229.359933 
L 378.703636 222.488544 
L 379.179204 202.25114 
L 380.764432 116.636999 
L 380.922954 114.095312 
L 381.081477 113.730919 
L 381.24 115.672281 
L 381.557045 126.600081 
L 382.032614 158.729728 
L 382.98375 237.102534 
L 383.300795 246.989879 
L 383.459318 245.720203 
L 383.617841 239.814791 
L 383.934886 214.34437 
L 385.044545 94.864881 
L 385.203068 97.846127 
L 385.361591 110.090407 
L 385.678636 158.378666 
L 386.154204 240.577315 
L 386.312727 252.402649 
L 386.47125 250.613274 
L 386.629773 234.9558 
L 387.422386 114.369371 
L 387.580909 120.874966 
L 388.373523 216.167329 
L 388.532045 211.616024 
L 389.324659 150.466648 
L 389.483182 154.180519 
L 390.117273 188.953561 
L 390.275795 190.497962 
L 390.434318 187.837542 
L 391.068409 166.751477 
L 391.226932 166.335429 
L 391.385454 168.558662 
L 392.019545 181.451203 
L 392.178068 181.072205 
L 392.970682 171.972664 
L 393.129204 172.621241 
L 393.763295 177.768782 
L 393.921818 177.848586 
L 394.238864 176.434379 
L 394.555909 174.698722 
L 394.714432 174.294793 
L 394.872954 174.312814 
L 395.19 175.27434 
L 395.507045 176.349521 
L 395.665568 176.56709 
L 395.824091 176.513598 
L 396.616704 175.211678 
L 396.93375 175.519877 
L 397.409318 176.122183 
L 397.726364 176.096361 
L 398.360454 175.705825 
L 398.6775 175.76806 
L 399.311591 176.057812 
L 399.787159 176.001189 
L 400.42125 175.91395 
L 402.165 176.029365 
L 408.664432 176.33859 
L 414.846818 176.46856 
L 414.846818 176.46856 
" clip-path="url(#p05dcdb24b8)" style="fill: none; stroke: #ff7f0e; stroke-width: 1.5; stroke-linecap: square"/>
   </g>
   <g id="line2d_29">
    <path d="M 57.536591 177.844814 
L 59.914432 170.754043 
L 60.707045 169.236349 
L 61.182614 168.690307 
L 61.658182 168.449308 
L 62.13375 168.524288 
L 62.609318 168.912734 
L 63.084886 169.598729 
L 63.718977 170.924964 
L 64.670114 173.582605 
L 67.206477 181.198274 
L 67.840568 182.428173 
L 68.316136 183.026574 
L 68.791704 183.316794 
L 69.267273 183.285716 
L 69.742841 182.934105 
L 70.218409 182.276634 
L 70.8525 180.974397 
L 71.645114 178.808177 
L 74.657045 169.935565 
L 75.291136 168.926845 
L 75.766704 168.523625 
L 76.242273 168.44506 
L 76.717841 168.695438 
L 77.193409 169.264584 
L 77.8275 170.475484 
L 78.620114 172.578392 
L 80.205341 177.722351 
L 81.315 180.976047 
L 82.107614 182.609614 
L 82.583182 183.20824 
L 83.05875 183.48478 
L 83.375795 183.483198 
L 83.851364 183.20151 
L 84.326932 182.596363 
L 84.961023 181.333996 
L 85.753636 179.169737 
L 88.924091 169.705189 
L 89.558182 168.775305 
L 90.03375 168.45414 
L 90.350795 168.429095 
L 90.826364 168.676974 
L 91.301932 169.256948 
L 91.936023 170.500574 
L 92.728636 172.665227 
L 94.472386 178.455993 
L 95.423523 181.220532 
L 96.057614 182.564741 
L 96.533182 183.227348 
L 97.00875 183.557809 
L 97.325795 183.585017 
L 97.642841 183.456331 
L 98.118409 182.977063 
L 98.593977 182.174353 
L 99.228068 180.665537 
L 100.179204 177.723704 
L 102.24 171.018717 
L 103.032614 169.273894 
L 103.508182 168.627888 
L 103.98375 168.323111 
L 104.300795 168.317554 
L 104.617841 168.470965 
L 105.093409 168.991717 
L 105.7275 170.187586 
L 106.520114 172.342864 
L 107.946818 177.180949 
L 109.056477 180.701226 
L 109.849091 182.522892 
L 110.324659 183.21401 
L 110.800227 183.559524 
L 111.117273 183.588588 
L 111.434318 183.455047 
L 111.909886 182.956321 
L 112.385454 182.120971 
L 113.019545 180.552842 
L 113.970682 177.506964 
L 116.031477 170.676163 
L 116.665568 169.243753 
L 117.141136 168.534511 
L 117.616704 168.178437 
L 117.93375 168.146837 
L 118.250795 168.281489 
L 118.726364 168.78842 
L 119.201932 169.638901 
L 119.836023 171.235225 
L 120.787159 174.329945 
L 122.689432 180.775634 
L 123.482045 182.616285 
L 123.957614 183.295821 
L 124.433182 183.611669 
L 124.750227 183.611299 
L 125.067273 183.441325 
L 125.542841 182.876856 
L 126.176932 181.592879 
L 126.969545 179.297543 
L 128.713295 173.113219 
L 129.664432 170.228504 
L 130.298523 168.889798 
L 130.774091 168.284162 
L 131.249659 168.056281 
L 131.566704 168.121177 
L 132.042273 168.540963 
L 132.517841 169.328556 
L 133.151932 170.882014 
L 134.103068 173.997836 
L 136.163864 181.142594 
L 136.797954 182.644094 
L 137.273523 183.380297 
L 137.749091 183.738324 
L 138.066136 183.756675 
L 138.383182 183.597372 
L 138.85875 183.033697 
L 139.334318 182.106542 
L 139.968409 180.387634 
L 140.919545 177.103711 
L 142.663295 170.959073 
L 143.455909 169.046083 
L 143.931477 168.354555 
L 144.407045 168.053949 
L 144.724091 168.07986 
L 145.041136 168.287178 
L 145.516704 168.927528 
L 146.150795 170.341287 
L 146.943409 172.819698 
L 149.638295 182.147939 
L 150.272386 183.37509 
L 150.747954 183.84918 
L 151.065 183.936386 
L 151.382045 183.837119 
L 151.857614 183.344149 
L 152.333182 182.462047 
L 152.967273 180.762053 
L 153.918409 177.427161 
L 155.662159 171.056771 
L 156.454773 169.051235 
L 156.930341 168.322774 
L 157.405909 168.003418 
L 157.722954 168.027763 
L 158.04 168.242317 
L 158.515568 168.909142 
L 159.149659 170.382742 
L 159.942273 172.959708 
L 162.478636 182.05506 
L 163.112727 183.380053 
L 163.588295 183.911541 
L 163.905341 184.02684 
L 164.222386 183.946484 
L 164.539432 183.672009 
L 165.015 182.911296 
L 165.649091 181.313933 
L 166.441704 178.604635 
L 168.819545 169.909104 
L 169.453636 168.533603 
L 169.929204 167.973367 
L 170.24625 167.844419 
L 170.563295 167.915958 
L 170.880341 168.186574 
L 171.355909 168.950539 
L 171.99 170.567026 
L 172.782614 173.316004 
L 175.160454 182.084483 
L 175.794545 183.433585 
L 176.270114 183.957417 
L 176.587159 184.054663 
L 176.904204 183.946162 
L 177.22125 183.634181 
L 177.696818 182.802278 
L 178.330909 181.091122 
L 179.282045 177.601587 
L 181.184318 170.304501 
L 181.818409 168.689821 
L 182.293977 167.951356 
L 182.611023 167.710701 
L 182.928068 167.679831 
L 183.245114 167.859966 
L 183.720682 168.515104 
L 184.19625 169.597699 
L 184.830341 171.596532 
L 185.94 176.014842 
L 187.208182 180.944765 
L 187.842273 182.747612 
L 188.317841 183.640112 
L 188.793409 184.076594 
L 189.110454 184.099625 
L 189.4275 183.906194 
L 189.903068 183.221802 
L 190.378636 182.100924 
L 191.012727 180.042993 
L 192.122386 175.528397 
L 193.390568 170.562644 
L 194.024659 168.789913 
L 194.500227 167.942988 
L 194.975795 167.570289 
L 195.292841 167.598418 
L 195.609886 167.848449 
L 196.085454 168.624441 
L 196.719545 170.330217 
L 197.512159 173.276352 
L 199.731477 182.09226 
L 200.365568 183.58302 
L 200.841136 184.161976 
L 201.158182 184.267933 
L 201.475227 184.145032 
L 201.792273 183.796122 
L 202.267841 182.870561 
L 202.901932 180.979332 
L 203.853068 177.174793 
L 205.438295 170.621062 
L 206.072386 168.773256 
L 206.547954 167.895433 
L 206.865 167.58643 
L 207.182045 167.509969 
L 207.499091 167.668869 
L 207.816136 168.059342 
L 208.291704 169.05484 
L 208.925795 171.04525 
L 209.876932 174.981198 
L 211.462159 181.591036 
L 212.09625 183.378909 
L 212.571818 184.18067 
L 212.888864 184.426134 
L 213.205909 184.430612 
L 213.522954 184.193408 
L 213.998523 183.39987 
L 214.474091 182.127274 
L 215.266704 179.17168 
L 217.644545 169.342553 
L 218.278636 167.926426 
L 218.754204 167.468273 
L 219.07125 167.471523 
L 219.388295 167.723432 
L 219.863864 168.550928 
L 220.339432 169.868973 
L 221.132045 172.912887 
L 223.351364 182.379204 
L 223.985454 183.956249 
L 224.461023 184.530243 
L 224.778068 184.597099 
L 225.095114 184.407052 
L 225.412159 183.965064 
L 225.887727 182.859099 
L 226.521818 180.678572 
L 227.472954 176.4448 
L 228.899659 170.200316 
L 229.53375 168.332143 
L 230.009318 167.52478 
L 230.326364 167.304488 
L 230.643409 167.348333 
L 230.960454 167.655657 
L 231.436023 168.589456 
L 232.070114 170.610957 
L 232.862727 174.028132 
L 234.606477 181.866823 
L 235.240568 183.723322 
L 235.716136 184.49638 
L 236.033182 184.681722 
L 236.350227 184.594108 
L 236.667273 184.235426 
L 237.142841 183.214143 
L 237.776932 181.068087 
L 238.728068 176.737339 
L 240.154773 170.18349 
L 240.788864 168.198477 
L 241.264432 167.336769 
L 241.581477 167.100245 
L 241.898523 167.145066 
L 242.215568 167.470578 
L 242.691136 168.4616 
L 243.325227 170.603401 
L 244.276364 174.989294 
L 245.703068 181.663971 
L 246.337159 183.674002 
L 246.812727 184.531857 
L 247.129773 184.753805 
L 247.446818 184.684873 
L 247.763864 184.326384 
L 248.239432 183.272002 
L 248.873523 181.029649 
L 249.824659 176.498518 
L 251.092841 170.380606 
L 251.726932 168.204814 
L 252.2025 167.22511 
L 252.519545 166.929184 
L 252.836591 166.933121 
L 253.153636 167.237742 
L 253.629204 168.235383 
L 254.104773 169.813808 
L 254.897386 173.400291 
L 256.799659 182.540617 
L 257.43375 184.29619 
L 257.750795 184.753719 
L 258.067841 184.905506 
L 258.384886 184.745309 
L 258.701932 184.277649 
L 259.1775 183.035711 
L 259.811591 180.528818 
L 260.92125 174.829135 
L 262.030909 169.529001 
L 262.665 167.57039 
L 263.140568 166.851776 
L 263.457614 166.768694 
L 263.774659 167.008858 
L 264.091704 167.56492 
L 264.567273 168.947642 
L 265.201364 171.636205 
L 267.737727 183.818641 
L 268.213295 184.828608 
L 268.530341 185.102409 
L 268.847386 185.041964 
L 269.164432 184.648335 
L 269.64 183.465378 
L 270.274091 180.941928 
L 271.225227 175.91083 
L 272.334886 170.133076 
L 272.968977 167.832191 
L 273.444545 166.875223 
L 273.761591 166.655606 
L 274.078636 166.783712 
L 274.395682 167.256123 
L 274.87125 168.571031 
L 275.505341 171.274894 
L 276.615 177.41975 
L 277.566136 182.302501 
L 278.200227 184.467991 
L 278.675795 185.259596 
L 278.992841 185.34459 
L 279.309886 185.067952 
L 279.626932 184.438989 
L 280.1025 182.888868 
L 280.736591 179.908281 
L 282.955909 168.248113 
L 283.431477 166.982985 
L 283.748523 166.577325 
L 284.065568 166.544444 
L 284.382614 166.887213 
L 284.699659 167.59358 
L 285.175227 169.272734 
L 285.809318 172.425074 
L 287.870114 183.621396 
L 288.345682 184.999766 
L 288.662727 185.468086 
L 288.979773 185.549471 
L 289.296818 185.238887 
L 289.613864 184.547413 
L 290.089432 182.858562 
L 290.723523 179.642965 
L 292.784318 168.18392 
L 293.259886 166.811738 
L 293.576932 166.370582 
L 293.893977 166.334291 
L 294.211023 166.706394 
L 294.528068 167.472858 
L 295.003636 169.289973 
L 295.637727 172.678883 
L 297.54 183.619658 
L 298.015568 185.118764 
L 298.332614 185.630178 
L 298.649659 185.720499 
L 298.966704 185.383686 
L 299.28375 184.632134 
L 299.759318 182.799976 
L 300.393409 179.332566 
L 302.295682 168.094826 
L 302.77125 166.593172 
L 303.088295 166.106429 
L 303.405341 166.062017 
L 303.722386 166.4641 
L 304.039432 167.29652 
L 304.515 169.268956 
L 305.307614 173.955619 
L 306.734318 182.85618 
L 307.209886 184.783142 
L 307.685454 185.790579 
L 308.0025 185.891023 
L 308.319545 185.522969 
L 308.636591 184.701055 
L 309.112159 182.701913 
L 309.74625 178.946624 
L 311.49 167.979595 
L 311.965568 166.343226 
L 312.282614 165.815636 
L 312.599659 165.774689 
L 312.916704 166.225135 
L 313.23375 167.147796 
L 313.709318 169.318213 
L 314.501932 174.407311 
L 315.770114 182.837505 
L 316.245682 184.930201 
L 316.562727 185.774971 
L 316.879773 186.123419 
L 317.038295 186.104062 
L 317.355341 185.6774 
L 317.672386 184.751635 
L 318.147954 182.53003 
L 318.940568 177.271447 
L 320.20875 168.608714 
L 320.684318 166.5217 
L 321.001364 165.720796 
L 321.318409 165.448443 
L 321.476932 165.517143 
L 321.793977 166.062001 
L 322.111023 167.126098 
L 322.586591 169.573129 
L 323.379204 175.162156 
L 324.488864 183.011284 
L 324.964432 185.242232 
L 325.281477 186.113546 
L 325.598523 186.428705 
L 325.757045 186.369918 
L 326.074091 185.821156 
L 326.391136 184.722713 
L 326.866704 182.1766 
L 327.659318 176.360953 
L 328.768977 168.330771 
L 329.244545 166.153045 
L 329.561591 165.37094 
L 329.878636 165.185947 
L 330.037159 165.32347 
L 330.354204 166.051635 
L 330.829773 168.190683 
L 331.463864 172.549569 
L 333.049091 184.393995 
L 333.524659 186.274747 
L 333.841704 186.775933 
L 334.000227 186.78423 
L 334.15875 186.629174 
L 334.475795 185.838199 
L 334.951364 183.547278 
L 335.585454 178.932991 
L 337.012159 167.721164 
L 337.487727 165.581226 
L 337.804773 164.939722 
L 337.963295 164.875542 
L 338.121818 164.985653 
L 338.438864 165.722065 
L 338.755909 167.108469 
L 339.231477 170.216648 
L 341.292273 186.048499 
L 341.609318 186.990101 
L 341.767841 187.19253 
L 341.926364 187.209473 
L 342.084886 187.039785 
L 342.401932 186.151428 
L 342.8775 183.566983 
L 343.511591 178.407117 
L 344.779773 167.543192 
L 345.255341 165.204058 
L 345.572386 164.54926 
L 345.730909 164.518148 
L 345.889432 164.687806 
L 346.206477 165.618172 
L 346.682045 168.358922 
L 347.316136 173.828463 
L 348.425795 183.96562 
L 348.901364 186.699009 
L 349.218409 187.576608 
L 349.376932 187.699025 
L 349.535454 187.60458 
L 349.8525 186.771227 
L 350.169545 185.128884 
L 350.645114 181.412532 
L 352.388864 165.665112 
L 352.705909 164.400327 
L 353.022954 164.034592 
L 353.181477 164.204282 
L 353.498523 165.239371 
L 353.974091 168.36503 
L 354.608182 174.575579 
L 355.717841 185.423274 
L 356.193409 187.822485 
L 356.510454 188.222729 
L 356.668977 188.03745 
L 356.986023 186.90641 
L 357.461591 183.500789 
L 358.254204 174.975015 
L 359.046818 166.813196 
L 359.522386 163.992295 
L 359.839432 163.406347 
L 359.997954 163.536966 
L 360.315 164.642044 
L 360.632045 166.793068 
L 361.266136 173.426718 
L 362.375795 185.858903 
L 362.851364 188.547963 
L 363.009886 188.861177 
L 363.168409 188.859252 
L 363.326932 188.53925 
L 363.643977 186.972554 
L 364.119545 182.60935 
L 365.863295 163.350569 
L 366.180341 162.566308 
L 366.338864 162.70611 
L 366.655909 164.050281 
L 366.972954 166.70257 
L 367.607045 174.758828 
L 368.558182 186.931551 
L 368.875227 189.110521 
L 369.03375 189.643395 
L 369.192273 189.77406 
L 369.350795 189.493503 
L 369.667841 187.723714 
L 370.143409 182.457692 
L 371.570114 163.005245 
L 371.887159 161.540727 
L 372.045682 161.503512 
L 372.204204 161.946188 
L 372.52125 164.226761 
L 372.996818 170.557374 
L 374.106477 188.122126 
L 374.423523 190.577029 
L 374.582045 191.015628 
L 374.740568 190.885364 
L 374.899091 190.17941 
L 375.216136 187.122674 
L 375.691704 179.300697 
L 376.642841 162.471281 
L 376.959886 160.032018 
L 377.118409 159.81853 
L 377.276932 160.323896 
L 377.593977 163.4481 
L 378.069545 172.386019 
L 378.862159 189.203509 
L 379.179204 192.616811 
L 379.337727 193.058247 
L 379.49625 192.566699 
L 379.813295 188.802329 
L 380.288864 177.682678 
L 380.922954 161.488043 
L 381.24 157.481008 
L 381.398523 157.252853 
L 381.557045 158.348627 
L 381.874091 164.402665 
L 382.98375 196.373571 
L 383.142273 196.648465 
L 383.300795 194.80086 
L 383.617841 184.897483 
L 384.410454 152.258567 
L 384.568977 152.251979 
L 384.7275 156.288366 
L 385.044545 175.029355 
L 385.361591 196.597359 
L 385.520114 201.604004 
L 385.678636 199.563897 
L 385.995682 176.343784 
L 386.312727 155.080603 
L 386.47125 156.244529 
L 387.105341 189.032394 
L 387.263864 186.12917 
L 387.739432 168.179695 
L 387.897954 168.531389 
L 388.373523 180.174255 
L 388.532045 180.22702 
L 389.007614 173.776988 
L 389.166136 173.613103 
L 389.800227 177.03369 
L 389.95875 176.727022 
L 390.434318 175.183592 
L 390.592841 175.29361 
L 391.068409 176.277868 
L 391.226932 176.236052 
L 391.7025 175.687399 
L 392.019545 175.766126 
L 392.495114 175.975103 
L 393.604773 175.893284 
L 394.397386 175.875676 
L 398.836023 175.91414 
L 414.846818 175.991629 
L 414.846818 175.991629 
" clip-path="url(#p05dcdb24b8)" style="fill: none; stroke: #2ca02c; stroke-width: 1.5; stroke-linecap: square"/>
   </g>
   <g id="patch_3">
    <path d="M 57.6 307.584 
L 57.6 41.472 
" style="fill: none; stroke: #808080; stroke-width: 0.8; stroke-linejoin: miter; stroke-linecap: square"/>
   </g>
   <g id="patch_4">
    <path d="M 414.72 307.584 
L 414.72 41.472 
" style="fill: none; stroke: #808080; stroke-width: 0.8; stroke-linejoin: miter; stroke-linecap: square"/>
   </g>
   <g id="patch_5">
    <path d="M 57.6 307.584 
L 414.72 307.584 
" style="fill: none; stroke: #808080; stroke-width: 0.8; stroke-linejoin: miter; stroke-linecap: square"/>
   </g>
   <g id="patch_6">
    <path d="M 57.6 41.472 
L 414.72 41.472 
" style="fill: none; stroke: #808080; stroke-width: 0.8; stroke-linejoin: miter; stroke-linecap: square"/>
   </g>
   <g id="legend_1">
    <g id="patch_7">
     <path d="M 63.6 103.91325 
L 152.76 103.91325 
L 152.76 47.472 
L 63.6 47.472 
z
" style="fill: #ffffff; opacity: 0.8; stroke: #808080; stroke-linejoin: miter"/>
    </g>
    <g id="line2d_30">
     <path d="M 72 57.370125 
L 73.2 57.370125 
L 74.4 57.370125 
L 75.6 57.370125 
L 76.8 57.370125 
" style="fill: none; stroke: #1f77b4; stroke-width: 6; stroke-linecap: square"/>
    </g>
    <g id="text_17">
     <!-- $m_1$ = 200 -->
     <g transform="translate(90 61.390125) scale(0.12 -0.12)">
      <defs>
       <path id="DejaVuSans-Oblique-6d" d="M 5747 2113 
L 5338 0 
L 4763 0 
L 5166 2094 
Q 5191 2228 5203 2325 
Q 5216 2422 5216 2491 
Q 5216 2772 5059 2928 
Q 4903 3084 4622 3084 
Q 4203 3084 3875 2770 
Q 3547 2456 3450 1953 
L 3066 0 
L 2491 0 
L 2900 2094 
Q 2925 2209 2937 2307 
Q 2950 2406 2950 2484 
Q 2950 2769 2794 2926 
Q 2638 3084 2363 3084 
Q 1938 3084 1609 2770 
Q 1281 2456 1184 1953 
L 800 0 
L 225 0 
L 909 3500 
L 1484 3500 
L 1375 2956 
Q 1609 3263 1923 3423 
Q 2238 3584 2597 3584 
Q 2978 3584 3223 3384 
Q 3469 3184 3519 2828 
Q 3781 3197 4126 3390 
Q 4472 3584 4856 3584 
Q 5306 3584 5551 3325 
Q 5797 3066 5797 2591 
Q 5797 2488 5784 2364 
Q 5772 2241 5747 2113 
z
" transform="scale(0.015625)"/>
       <path id="DejaVuSans-3d" d="M 678 2906 
L 4684 2906 
L 4684 2381 
L 678 2381 
L 678 2906 
z
M 678 1631 
L 4684 1631 
L 4684 1100 
L 678 1100 
L 678 1631 
z
" transform="scale(0.015625)"/>
      </defs>
      <use xlink:href="#DejaVuSans-Oblique-6d" transform="translate(0 0.78125)"/>
      <use xlink:href="#DejaVuSans-31" transform="translate(97.412109 -15.625) scale(0.7)"/>
      <use xlink:href="#DejaVuSans-20" transform="translate(144.682617 0.78125)"/>
      <use xlink:href="#DejaVuSans-3d" transform="translate(176.469727 0.78125)"/>
      <use xlink:href="#DejaVuSans-20" transform="translate(260.258789 0.78125)"/>
      <use xlink:href="#DejaVuSans-32" transform="translate(292.045898 0.78125)"/>
      <use xlink:href="#DejaVuSans-30" transform="translate(355.668945 0.78125)"/>
      <use xlink:href="#DejaVuSans-30" transform="translate(419.291992 0.78125)"/>
     </g>
    </g>
    <g id="line2d_31">
     <path d="M 72 74.983875 
L 73.2 74.983875 
L 74.4 74.983875 
L 75.6 74.983875 
L 76.8 74.983875 
" style="fill: none; stroke: #ff7f0e; stroke-width: 6; stroke-linecap: square"/>
    </g>
    <g id="text_18">
     <!-- $m_1$ = 50 -->
     <g transform="translate(90 79.003875) scale(0.12 -0.12)">
      <use xlink:href="#DejaVuSans-Oblique-6d" transform="translate(0 0.78125)"/>
      <use xlink:href="#DejaVuSans-31" transform="translate(97.412109 -15.625) scale(0.7)"/>
      <use xlink:href="#DejaVuSans-20" transform="translate(144.682617 0.78125)"/>
      <use xlink:href="#DejaVuSans-3d" transform="translate(176.469727 0.78125)"/>
      <use xlink:href="#DejaVuSans-20" transform="translate(260.258789 0.78125)"/>
      <use xlink:href="#DejaVuSans-35" transform="translate(292.045898 0.78125)"/>
      <use xlink:href="#DejaVuSans-30" transform="translate(355.668945 0.78125)"/>
     </g>
    </g>
    <g id="line2d_32">
     <path d="M 72 92.597625 
L 73.2 92.597625 
L 74.4 92.597625 
L 75.6 92.597625 
L 76.8 92.597625 
" style="fill: none; stroke: #2ca02c; stroke-width: 6; stroke-linecap: square"/>
    </g>
    <g id="text_19">
     <!-- $m_1$ = 10 -->
     <g transform="translate(90 96.617625) scale(0.12 -0.12)">
      <use xlink:href="#DejaVuSans-Oblique-6d" transform="translate(0 0.78125)"/>
      <use xlink:href="#DejaVuSans-31" transform="translate(97.412109 -15.625) scale(0.7)"/>
      <use xlink:href="#DejaVuSans-20" transform="translate(144.682617 0.78125)"/>
      <use xlink:href="#DejaVuSans-3d" transform="translate(176.469727 0.78125)"/>
      <use xlink:href="#DejaVuSans-20" transform="translate(260.258789 0.78125)"/>
      <use xlink:href="#DejaVuSans-31" transform="translate(292.045898 0.78125)"/>
      <use xlink:href="#DejaVuSans-30" transform="translate(355.668945 0.78125)"/>
     </g>
    </g>
   </g>
  </g>
 </g>
 <defs>
  <clipPath id="p05dcdb24b8">
   <rect x="57.6" y="41.472" width="357.12" height="266.112"/>
  </clipPath>
 </defs>
</svg>
